/* XPM */
static char *_758805365912[] = {
/* columns rows colors chars-per-pixel */
"64 64 141 2 ",
"   c #38560A",
".  c #3B590B",
"X  c #2C4219",
"o  c #334B15",
"O  c #344D1A",
"+  c #395616",
"@  c #3E5C14",
"#  c #36511C",
"$  c #39541F",
"%  c #3E5C1D",
"&  c #3A5621",
"*  c #3C5922",
"=  c #405F1C",
"-  c #476D0F",
";  c #4D760D",
":  c #4F780F",
">  c #50780F",
",  c #436617",
"<  c #466A15",
"1  c #496E13",
"2  c #43641B",
"3  c #4A661C",
"4  c #46691A",
"5  c #4B6C1B",
"6  c #4D7313",
"7  c #4E7219",
"8  c #517615",
"9  c #537B12",
"0  c #587F16",
"q  c #53751B",
"w  c #58771E",
"e  c #577A1A",
"r  c #5A7B1E",
"t  c #414E26",
"y  c #405025",
"u  c #415D24",
"i  c #455F29",
"p  c #4A5829",
"a  c #4F5931",
"s  c #545D35",
"d  c #456225",
"f  c #4C6726",
"g  c #4C6A23",
"h  c #47602A",
"j  c #4B642B",
"k  c #4E6A29",
"l  c #526F23",
"z  c #536729",
"x  c #526D2B",
"c  c #547323",
"v  c #5A7723",
"b  c #5B7A24",
"n  c #56732C",
"m  c #5A742D",
"M  c #5D7A2B",
"N  c #4F6530",
"B  c #516631",
"V  c #586633",
"C  c #556933",
"Z  c #5A6D36",
"A  c #5D6E39",
"S  c #5C7431",
"D  c #5F7B31",
"F  c #5F703A",
"G  c #60772E",
"H  c #617A2C",
"J  c #647637",
"K  c #687736",
"L  c #637C33",
"P  c #687B37",
"I  c #64743D",
"U  c #68773F",
"Y  c #657939",
"T  c #6A7B3C",
"R  c #677540",
"E  c #6A7742",
"W  c #6D7A44",
"Q  c #717C46",
"!  c #737D48",
"~  c #5A8017",
"^  c #5C821A",
"/  c #61861D",
"(  c #63881F",
")  c #638425",
"_  c #668922",
"`  c #6A8D25",
"'  c #64832A",
"]  c #68872A",
"[  c #6D8C2B",
"{  c #708F2F",
"}  c #6F9127",
"|  c #6E9029",
" . c #73942D",
".. c #77982E",
"X. c #668233",
"o. c #6A8536",
"O. c #6E8B34",
"+. c #6C8539",
"@. c #6E8A38",
"#. c #718537",
"$. c #728C37",
"%. c #70853E",
"&. c #728D3A",
"*. c #798F3E",
"=. c #749233",
"-. c #789534",
";. c #7B9B33",
":. c #76913B",
">. c #7A943D",
",. c #7E993D",
"<. c #6F8140",
"1. c #768546",
"2. c #788647",
"3. c #7B8C45",
"4. c #778249",
"5. c #798749",
"6. c #7C8A48",
"7. c #7D9242",
"8. c #7F9940",
"9. c #829E3C",
"0. c #81A037",
"q. c #86A33D",
"w. c #8AA63F",
"e. c #808F49",
"r. c #809744",
"t. c #839D42",
"y. c #899F47",
"u. c #829349",
"i. c #869849",
"p. c #899C49",
"a. c #86A142",
"s. c #8BA544",
"d. c #8EA944",
"f. c #8EA549",
"g. c #92AC46",
"h. c #90A74A",
"j. c #94AD4A",
"k. c #96B247",
"l. c #97B14A",
"z. c #98B34A",
"x. c None",
/* pixels */
"0 9 ; x.x.x.j.l.x.x.* & * & 6 : 9 7 * * = 6 6 x.x.x.x.0 = x.* b | ..w.0.g.z.j.a.n x.2 7 x.x.x.x.9 1 % * * 8 9 ; < & $ * * x.` k.",
"^ 0  .-.o.X.l.s.9 9 * * x.2 x.9 e 8 * * 7 8 0 M E Y c 9 * * = ; ~ 8 ) 9 ;.k.g.o.* * 6 5 M U U w 9 8 4 * 2 9 v 9 x.2 x.* * 9 9 ;.",
"&.9 ;.j.o.>.S l 6 9 2 6 6 ~ ; p C u * 2 9 : 8 : W P 7 9 6 2 * x.< 1 D m ` ) a.t.* < 9 9 > M L ; > > 0 * * j A x.; 0 6 6 = 0 1 4 ",
"Q ;.l.j.h.X.g 2 0 6 | 0 > 6 x.x.& * * M ) 7 : ,.3.W > 7 9 4 * j.l.* W W P M l.t.* x.: ~ 9 H Y , 9 d ' k & & * x.w 9 >  .7 6 = % ",
"x...0.a.g.' 9 9  .q.n b c 9 W Z * * S s.g.&.@ & X.>.^ 2 6 x.x.g.s.* j E W F l.j.x.x.6 ^ k.>.L & % X.g.t.* & * W H 8 = = &.:.& $ ",
"; 9 > | x 6 9 ; ` m * u j n ! i.t.x :.l.j.>.* & d j.#.& & , s.b d.@.i x.i & x.} ..< 2 * k.g.b X.$ t.j.g.L +.r.u.T j & & n s.S & ",
"1 ; 9 2 x.2 5 6 k.g.d & $ I ! s.g.L x.0 ` x.& * & +.A * * 7 ;.6 8.l.o.* * * 2 -.^ % & & U ) 0 0 T q.^ 9 x.a.j.3.4.C h * k d.@.& ",
">.=.: 1 d $ & 2 j.k.& x.u 3.*.j.l.l.` 0 0 9 x.x.c ! W B d w.j.s.l.x.8.S E Y g.z.s.% & J q 9 9 v L 9 9 0 ;.z.l.g.1.o.x.j o.l.s.8.",
"g._ 0 9 = & & x 9.x.x.& x.h.t.&.a.d._ 8 9 ; 9 8 > L u.h.Y >.j.j.* @.j.7.E C x s.' x.n j.' 0 0 9 Z 6 ; 9 [ j.:.:.s.:.* 8.q.;.j.7.",
"X.M , 0 , 2 & & ] 0 6 * x.g.S * L q v M x.- 9 9 9 w 1.j.@.x.a.* & S l.7.i & * k j * s.g.T P x.b h M X.= 2 ' x * &.X.h q.0 9 &.k ",
"+.s.{ > x.x.o.d.x.~ [ 2.W x.>.x.6 r W ! x.[ m 9 H x.* D @.x.g.#.& * X.a.& & & c 4 d &.j X x.d W E 8.l.D 7 0 1 @.L j W p.^ < * s.",
"+.l.x.x.B x.x.X.x.@.[ W 2.m j.l.9 H W Q i.g.I b U z $ $ * ` [ d $ & x.x.& x.& 4 0 8 & & $ , G Q W +.@.l.0 9 _ j.8.F 6.T  .* * d ",
"7.x.* * $ & & & & o.g.x.x.j.j.:.x.9 x.7.t.:.E E ! x.* * 3 0 8 5 x.O & x.g.g.: 9 : x.* & & x.8 m * & * L ~ : x.j.l.l.l.s.j.h * $ ",
"l.>.& & $ x.& & & 4 9 > x.g.:.o.x.x.x.&.$ & h U ! E * x.>.g.0 9 2 & & * :.j._ : 9 / 9.D u W ! F * & $ $ 9 1 9 w.>.x.} ~ > 3 X & ",
"j.z.& m $ < , * x.4 ; 9  .j.9.& & x.x.X & & $ B E ! A x.l.s.T T x.& & & | ../ ;  .| $.L U W ! x.& $ * $ x.1 ; ) a.j.~ 9 : , * $ ",
"z.x.x.g.o.9 ) 1 x.x.x.9 x.s.s.& & @.j.x.* & * F E E U U -._ W Q W x.x.* ; ; ; v f.t.n * F E U m = & I R # % - ^ d.&.1 6 = * $ * ",
"f.u & u [ ;.9.> 9 x.x.9 0 ) b * * o.j.x.x.x.= B x.x.A W U e m L b 1 9 x.; ; q W Q X.x.& j v b v F E Q W J % + * n S u * * * $ % ",
"k & & & x.w._ 9 9 x.j.^ ~ 9 ; x.x.x.k.z.k.: 9 6 ; x.@.>.K w ; 9 0 9 9 x.x.x.E W ! E ! B * ; x.2 x.Q W Q x.x.& & * 4 0 6 x.x.& 1 ",
"x.& & S ..; < > x.l.g.0 8 8 ) x.x.x.x.z...~ 9 9 ; x.j.z.x.9 ; x.> 9 > x.x.* j V I A ' J y x.; < 7 S W r 9 9 & $ $ x.9 ; ~ 9 1 ; ",
"W j & x s.; 1 9 x.x.x.x.J a.l.x.x.* * S z.q.9 - 8 z.j.O.6 9 9 x., q ! x.x.* $ * Z G > 9 6 x.: ^ { | 9 6 6 1 * * * x.1 x.: : ~ 8 ",
"Q w 2 3 q.7 9.g.x.x.z.l.t.x.x.x.x.& $ % ~ x.9 d.s.j.t.* & x.;.s.x.x.! W 1.$ $ $ # g 9 > x.x.7 } l.j.* * 2 % x.x.x.x.& x.;   ~ < ",
") 0 9 0 ^ 1 j.z.x.x.z.l.x O & x.x.& % 1 ; x.+.j.j.z.n & & x.j.j.d x.x.5.W u X.$ O o x.x.x.E W q.j.g.8.* x.6 0 9 6 & & & * % 6 % ",
"0 ; 9 9 l A x.x.x.l.j.j.s.$ & & x.x.x.; w m W 2.d.z.x.7.@.x.s.D * * x.x.z.g.&.& & & x.x.K Y i.g.l.l.l.x.x.6 9 9 x.x.& * & * % * ",
"x.1 9 x.W W ! x.x.x.x.j.:.* * & x.x.x.; M W W A x.z.x.t.x.x.x.% * * x.x.z.z.o.& & f g.k.: ~ 2 x.z l.h.* & * < 9 x.x.$ & & x.& & ",
"x.x.x.x.E W x.x.x.x.;.n x.W x.x.x.x.* & x.x.W s x.! x.x.> 6 ; ; x.x.& x.x.x.x.2 x.l.l.;.9 : * $ & 8.a.d & & x.x.x.x.B A 6 , , < ",
"s.x.x.x.x.6.x.x.8.-.9 7 : x.W x.x.x.& & $ x.x.x.W E Q x.> ; 0 8 2 * & & x.x.; 9 2 x.x.,.; x.& * & x.x.X.& x.x.x.x.E W E 6 9 9 9 ",
"3.I ! ! u.z.x.x.' 9 9 9 : x.x.x.x.x.& & $ x.x.x.x.s ! x.8 q 9 _ =.x.* x.& x.9 ;.] x.x.* & x.B x.* 9 ^ x.x.x.A x.x.x.x.L 6 6 9 1 ",
"5.E Q s K z.x.d.x.x.~ ~ ) x.x.x.x.x.& * * x.6 x.x.x.x.x.W T _ l.l.>.x.x.x.9 ~ j.j.x.x.& & & A x.5 8 x.x.:.j.W Q x.x.x.x.E e 9 $ ",
"P ! W ! x.x.x.j.x.x.6 ;.l.l.x.x.x.x.x.x.x.x.0 > x.x.x.s x.x.x.a.z.l.z.x.x.x.x.j.l.x.x.& & & I u.E E u z.j.j.K x.x.x.x.W ! x.x.& ",
"~ x.Z y x.x.x.z.x.x.I 6.u.6.x.x.x.z.l.j.x.x.9 9 x.x.x.x.x.9 9 d.g.d.#.x.x.9 0 [ x.x.x.* * x y.f.4.I & *.g.$.x.x.x.x.x.x.x.6 > 2 ",
"g.j.m $ & x.x.x.x.x.W ! x.W Q x.x.z.j.s.* x.x.x.x.x.x.x.x.9 > ..x.s.j.j.x.  9 q v x.x.g.,.t.z.z.,.x.x.x.s.7 , 9 9 x.x.x.; 9 ^ 6 ",
"d.z.>.u & & x.x.x.* u p W W Q W x.& s.L * & x.x.x.x.x.x.x.x.P Q x.x.o.s.x.x.9 x W ! j.l.t.h.s.=.> 9 x.x.; 9 ; 9 9 x.x.x.x.x.6 x.",
"z.j.z.x.x.x.x.x.x.* & & W W ! I * $ * * x.x.x.x.x.x.x.x.Q W W ! A & & * x.x.x.x.! W e.x.x.x.:. .: ; x.x.> 9 x.x.x.x.x.x.x.j.( 0 ",
"5 s.d.x.x.x.x.x.x.& & * c T x.x.$ & * x.> . x.x.x.x.x.x.! W Q E g & & $ x.z.d.l.x.x.W W ! x.& 1 ; x.x.x.x.> x.x.x.x.x.x.j.g.; : ",
"; x.a.j.x.x.x.x.* & x.2 0 8 x.x.* x.1 9 0 > x.x.x.x.x.x.x.+.5.W ; 4 x.* x.z.j.s.x.x.! E * $ $ * ; x.x.x.x.$ & x.x.x.x.x.l.,.x.9 ",
"; x.x.z.z.x.x.x.x.8 x.~ 9 ; x.x.x.x.; 9 0 > x.x.x.x.x.x.W *.l.f.: > 9 x.x.x.l.x.x.x.x.x.* & $ 1 ; ; x.x.x.x.x.x.x.x.x.x.7.>.j.[ ",
"9 6 ; x.x.x.x.x.> 9 0 ; x.x.x.x.x.x.x.x.; ; x.x.x.x.x.Q x.,.x.x.x.x.x.x.x.x.x.x.h.x.x.x.* x.$ 2 + * x.x.x.x.j.S x.x.x.! 6.>.g.W ",
"> > 9 ; x.x.x.x.x.; 9 ; x.x.x.x.x.9 9 2 x.x.x.x.x.x.x.9 9 x.x.: x.x.x.x.x.x.x.x.z.x.x.x.x.x.x.& & & x.x.x.x.j.l.x.x.x.z.g.s.. 0 ",
"x.0 9 x.x.x.x.W U 1 x.[ g.j.x.x.x.0 6 4 x.x.x.x.x.x.x.9 : 9 6 ~ 9 x.x.x.x.x.x.x.x.x.x.x.x.x.9 < & * & x.x.x.x.x.x.x.x.l.l.j.^ 9 ",
"9.; ; 0 ^ x.x.x.x.% # a.j.*.x.x.x.x.H W x.x.x.x.x.x.x.x.: x.9 9 6 x.x.x.x.x.x.x.x.x.x.x.x.9 0 9 = x.x.x.x.x.x.x.x.x.x.x.l.j.x.x.",
"3.U v : x.x.x.! B & $ & x.k x.x.x.x.W Q x.j.x.x.x.x.x.x.x.x.x.x.9 E W x.x.x.x.x.x.x.x.x.x.; 9 9 ^ x.x.x.x.x.x.x.x.x.x.x.x.x.; x.",
"9 b x.x.x.x.x.W x.& * u z.x.x.x.x.x.H x.s.g.x.x.x.x.x.x.x.x.x.S g.! W Q x.x.x.x.x.x.x.x.x.; ..[ s.+.9.j.x.x.x.x.x.x.x.x.x.9 9 2 ",
"9 9 x.x.x.x.x.x.x.X x.>.j.g.x.x.x.x.9 c s.j.x.x.x.x.x.x.x.x.x.l.g.x.x.x.x.x.x.x.x.x.x.x.x.x.x.x...v s.j.x.x.x.x.x.x.x.x.x.> > 9 ",
"6 x.x.x.x.x.x.x.x.x.~ d.j.h.z.x.x.x.9 c 1.! x.x.x.x.x.x.x.x.x.#.&.x.x.x.x.x.x.x.x.x.x.x.x.x.x.x.8 9 x.q.x.x.x.x.x.x.x.x.x.9 6 > ",
"& x.x.x.x.x.x.x.x.9 : x...E x.x.x.x.r W Q x.x.x.x.x.x.x.x.x.* & u & x.x.x.x.x.x.x.x.x.x.x.x.x.9 ~ : < : x.x.x.x.x.x.x.x.x.x.& + ",
"& x.E x.x.x.x.x.x.;.[ e ~ e x.x.x.x.#.E x.x.x.x.x.x.x.x.x.x.B & & & x.x.x.x.x.x.x.x.x.x.x.x.x.x.6 ; ~ 8 x.x.x.x.x.x.x.x.x.j & & ",
"& * E E x.x.x.x.x.l.h.| 9 8 x.x.x.x.h.i.x.x.x.x.x.x.x.x.x.! W & x.x.x.x.x.x.x.x.x.x.x.x.x.x.x.x.x.5 ; ; x.x.x.x.x.x.x.x.x.x.$ d ",
"* & x.j x.x.x.x.x.l.l.,.: : x.x.x.x.j.g.x.x.x.x.x.x.x.x.x.x.a.D & x.x.x.x.x.x.x.x.x.x.x.x.x.x.x.W E x.x.x.x.x.x.x.x.x.x.x.x.& m ",
"8 2 & & & x.x.x.x.x.l.6.E x.x.x.x.x.l.x.x.x.x.x.x.x.x.x.x.l.j.9.$ x.x.x.x.x.x.x.x.x.x.x.x.x.x.x.! U 9 x.x.x.x.x.x.x.x.x.x.x.$ d ",
"0 1 & * & x.x.x.x.x.j.p.s ! x.x.x.x.x.x.x.x.x.x.x.x.x.x.x.x.x.x.X x.x.x.x.x.x.x.x.x.x.x.x.x.x.x.x.7 0 x.x.x.x.x.x.x.x.x.x.& * x.",
"9 0 n x.x.x.x.x.x.x.z.x.x.x.x.x.x.x.x.x.x.x.x.x.x.x.x.x.x.x.x.o.a.x.x.x.x.x.x.x.x.x.x.x.x.x.x.z.s.x.9 : x.x.x.x.x.x.x.x.x.x.x.* ",
"6 d.j.z.x.x.x.x.x.x.j.x.x.x.x.x.x.x.x.x.x.x.x.x.x.x.x.x.x.x.l.z.z.x.x.x.x.x.x.x.x.x.x.x.x.x.x.j.g.x.x.x.x.x.x.x.x.x.x.x.x.x.X * ",
"& x.j.x.x.x.x.x.x.x.j.x.x.x.x.x.x.x.x.x.x.x.x.x.x.x.x.x.x.x.x.j.x.x.x.x.x.x.x.x.x.x.x.x.x.x.x.x.4.W x.x.x.x.x.x.x.x.x.x.x.x.& & ",
"* x.x.x.x.x.x.x.x.x.x.x.x.x.x.x.x.x.x.x.x.x.x.x.x.x.x.x.x.x.x.-.x.x.x.x.x.x.x.x.x.x.x.x.x.x.x.x.! W x.x.x.x.x.x.x.x.x.x.x.x.x.:.",
"& & & x.x.x.x.x.x.x.x.x.x.x.x.x.x.x.x.x.x.x.x.x.x.x.x.x.x.x.x.9 ; x.x.x.x.x.x.x.x.x.x.x.x.x.x.x.! ! x.x.x.x.x.x.x.x.x.x.x.x.x.z.",
"& & & x.x.x.x.x.x.x.x.x.x.x.x.x.x.x.x.x.x.x.x.x.x.x.x.x.x.x.; 9 x.x.x.x.x.x.x.x.x.x.x.x.x.x.x.x.x.x.x.x.x.x.x.x.x.x.x.x.x.x.x.>.",
"u X & x.x.x.x.x.x.x.x.x.x.x.x.x.x.x.x.x.x.x.x.x.x.x.x.x.x.x.x.. x.x.x.x.x.x.x.x.x.x.x.x.x.x.x.x.x.x.x.x.x.x.x.x.x.x.x.x.x.x.z.j.",
"x.x.9 x.x.x.x.x.x.x.x.x.x.x.x.x.x.x.x.x.x.x.x.x.x.x.x.x.x.x.x.x.x.x.x.x.x.x.x.x.x.x.x.x.x.x.x.x.x.x.x.x.x.x.x.x.x.x.x.x.x.x.#.g.",
"x.5 9 x.x.x.x.x.x.x.x.x.x.x.x.x.x.x.x.x.x.x.x.x.x.x.x.x.x.x.x.x.x.x.x.x.x.x.x.x.x.x.x.x.x.x.x.x.x.x.x.x.x.x.x.x.x.x.x.x.x.x.x.x.",
"t.x.9 > x.x.x.x.x.x.x.x.x.x.x.x.x.x.x.x.x.x.x.x.x.x.x.x.x.x.x.x.x.x.x.x.x.x.x.x.x.x.x.x.x.x.x.x.x.x.x.x.x.x.x.x.x.x.x.x.x.x.x.U ",
"j.x.x.x.x.x.x.x.x.x.x.x.x.x.x.x.x.x.x.x.x.x.x.x.x.x.x.x.x.x.x.x.x.x.x.x.x.x.x.x.x.x.x.x.x.x.x.x.x.x.x.x.x.x.x.x.x.x.x.x.x.x.Q A ",
"x.W x.x.x.x.x.x.x.x.x.x.x.x.x.x.x.x.x.x.x.x.x.x.x.x.x.x.x.x.x.x.x.x.x.x.x.x.x.x.x.x.x.x.x.x.x.x.x.x.x.x.x.x.x.x.x.x.x.x.x.x.x.$ ",
"s.6.x.x.x.x.x.x.x.x.x.x.x.x.x.x.x.x.x.x.x.x.x.x.x.x.x.x.x.x.x.x.x.x.x.x.x.x.x.x.x.x.x.x.x.x.x.x.x.x.x.x.x.x.x.x.x.x.x.x.x.x.x.& ",
"l.x.x.x.x.x.x.x.x.x.x.x.x.x.x.x.x.x.x.x.x.x.x.x.x.x.x.x.x.x.x.x.x.x.x.x.x.x.x.x.x.x.x.x.x.x.x.x.x.x.x.x.x.x.x.x.x.x.x.x.x.x.x.x."
};
