/* XPM */
static char *_758805377054[] = {
/* columns rows colors chars-per-pixel */
"64 64 142 2 ",
"   c #38560A",
".  c #3B5A0B",
"X  c #2C4219",
"o  c #334B15",
"O  c #344D1A",
"+  c #395616",
"@  c #3E5C14",
"#  c #37511C",
"$  c #39541F",
"%  c #3D5C1E",
"&  c #3A5621",
"*  c #3C5922",
"=  c #435F10",
"-  c #405F1D",
";  c #476D0F",
":  c #4D760D",
">  c #4F780F",
",  c #50780F",
"<  c #436617",
"1  c #466A15",
"2  c #496E14",
"3  c #43641B",
"4  c #4A661C",
"5  c #466819",
"6  c #4B6C1B",
"7  c #4D7312",
"8  c #4E711A",
"9  c #517615",
"0  c #537B12",
"q  c #587F16",
"w  c #53751B",
"e  c #58771E",
"r  c #567A18",
"t  c #597B1D",
"y  c #414E26",
"u  c #405025",
"i  c #415D24",
"p  c #4A552D",
"a  c #455F29",
"s  c #4A5829",
"d  c #4F5931",
"f  c #545D35",
"g  c #456224",
"h  c #4B6625",
"j  c #4D6B22",
"k  c #47602A",
"l  c #4B642B",
"z  c #4E6A29",
"x  c #516D24",
"c  c #536729",
"v  c #536D2C",
"b  c #547323",
"n  c #5A7723",
"m  c #5C7A24",
"M  c #56722B",
"N  c #5A742D",
"B  c #5D7A2B",
"V  c #4F6530",
"C  c #516631",
"Z  c #586633",
"A  c #566A34",
"S  c #5A6D36",
"D  c #5D6E39",
"F  c #5C7432",
"G  c #5F7B31",
"H  c #5F703A",
"J  c #60772E",
"K  c #617A2D",
"L  c #647637",
"P  c #637C33",
"I  c #687B37",
"U  c #64743D",
"Y  c #68773F",
"T  c #667939",
"R  c #6A7B3D",
"E  c #677540",
"W  c #6A7742",
"Q  c #6D7A44",
"!  c #717C46",
"~  c #737D48",
"^  c #5A8017",
"/  c #5D821B",
"(  c #61861D",
")  c #63881F",
"_  c #638425",
"`  c #658922",
"'  c #6A8D25",
"]  c #64832A",
"[  c #68872A",
"{  c #6D8C2C",
"}  c #708F2F",
"|  c #6F9127",
" . c #6E9029",
".. c #73942C",
"X. c #77982E",
"o. c #658133",
"O. c #6A8636",
"+. c #6D8A33",
"@. c #6D843A",
"#. c #6E8A38",
"$. c #718537",
"%. c #728D36",
"&. c #70853E",
"*. c #728D3A",
"=. c #798F3E",
"-. c #749233",
";. c #789534",
":. c #7B9B32",
">. c #76913A",
",. c #7A943D",
"<. c #7E993D",
"1. c #6F8140",
"2. c #758346",
"3. c #788647",
"4. c #7B8C45",
"5. c #778249",
"6. c #798749",
"7. c #7B8948",
"8. c #7D9242",
"9. c #7F9940",
"0. c #829D3D",
"q. c #81A037",
"w. c #86A33D",
"e. c #8AA63F",
"r. c #808F49",
"t. c #819645",
"y. c #839D42",
"u. c #899F47",
"i. c #829349",
"p. c #869849",
"a. c #899E49",
"s. c #86A142",
"d. c #8BA544",
"f. c #8EA944",
"g. c #8EA549",
"h. c #92AC46",
"j. c #90A74A",
"k. c #94AD49",
"l. c #96B247",
"z. c #97B14A",
"x. c #98B34A",
"c. c None",
/* pixels */
"q 0 : c.c.c.k.k.c.c.* & & & 7 > 9 8 * * 3 7 7 c.c.c.c.q i c.* n ..X.e.:.l.z.j.s.N c.< 8 c.c.c.c.0 2 % * * 0 9 > 1 & & & * c.` z.",
"/ q ..;.O.o.x.f.0 9 * * c.< c.r t > * * 8 > q K W T b 0 * * - : ^ > [ : :.z.k.O.* * 7 6 B Y Y e 0 9 5 * g 9 m , c.< c.& * 0 0 :.",
"*.0 :.k.O.,.F x > q 3 7 7 ^ : s A i * 3 0 > 0 > Q R 8 0 7 < * c.< 2 G P [ _ s.s.* 1 0 0 0 B P : , , q * * h D c.: q 7 7 3 9 7 5 ",
"! :.z.k.f.o.z < r 7  .q , 7 c.c.& * * B B 8 > <.4.Q 0 7 0 < * k.l.* Q Q P m z.y.* c.> ^ 0 B L 5 0 g ] z & & & c.t 0 , ..w 7 3 % ",
"c.X.q.d.f.] 9 0 ..w.M m b 0 Q S * * F g.j.*.@ & o.,.^ - 7 c.c.h.d.i V W ! H z.z.c.c.7 / z.,.P & % o.h.s.* & & ! P 9 - % *.#.* & ",
": 0 , { M 7 0 : ` N * a l M ~ p.s.x *.z.k.,.* & h h.#.& $ < d.m h.O.i c.a * c.' X.< 3 * k.h.t o.$ y.k.k.P O.y.i.Q h & * F s.G & ",
"7 : 7 < c.4 8 7 l.l.g $ $ U ~ d.j.o.c.q ' c.& * & 2.H * % 8 :.7 9.z.O.* * * 5 ;./ % & * Y _ q / R w./ 0 c.y.k.8.2.A k & z f.+.& ",
",.-.0 2 * $ & 3 k.l.* c.i 4.=.k.x.x.` q q 0 c.c.j ! Q v g d.k.f.x.c.<.F E T j.x.d.% & L r 0 0 n P 0 0 q :.x.z.j.&.O.c.z o.z.g.8.",
"k.` q 0 - * & v 0.c.c.& c.k.y.#.s.d.` 9 0 : 0 0 > P i.j.T ,.k.j.* O.z.8.W A v d.] c.N k.] r q 0 H 7 : 0 +.k.,.>.d.8.* 9.0.:.k.9.",
"o.N 1 ^ < 3 & & { 0 7 * c.k.F * P w m B c.; 0 9 9 e 4.k.#.c.s.* & F z.8.a & & z l * d.j.T I c.m k B P 3 < _ z * *.P k w.^ 0 *.h ",
"O.d.} : c.c.O.f.c.q { 3.Q c.,.c.7 t ! ! c.{ B 0 K c.& G #.c.k.*.& * o.9.& & & b 5 g #.z X c.h Q W 9.z.G 8 q 2 #.P C W a./ 2 * g.",
"@.x.c.c.C c.c.o.c.#.{ Q 3.N k.z.0 K Q ! i.k.U m Y c $ $ * ' [ g $ * c.c.& c.& 5 q 9 & & & < J ! W @.#.z.q 0 ` k.9.F 7.R  .* * k ",
"8.c.* * $ & & & * O.j.c.c.k.k.>.c.0 c.8.y.*.W W ~ c.& * 4 q 0 6 c.O & c.f.k.: r > c.* * % c.9 N * & * P ^ : c.k.k.z.l.e.k.k * $ ",
"z.,.& & $ c.& & & 1 0 , c.h.,.O.c.c.c.*.$ * a U ! Q * c.,.h.q 0 3 * & * ,.k.` > 0 ) 0.o.i Q ! H * * $ $ 0 2 0 e.,.c.| ^ , 4 X * ",
"k.x.& N $ 1 < * c.5 : 0 ..k.<.& * c.c.X * * & A W ! D c.z.d.R R c.& & &  .X.( :  . .*.L U Q ~ c.* $ * $ c.2 : ( s.k.^ ^ > 3 % # ",
"x.c.c.k.O.0 _ 2 c.c.c.0 c.d.d.& * O.z.c.* $ * H W W Y Y ;.` Q Q Q c.c.* : : : t g.s.M $ H W Y N % & E U # % 2 / f.*.5 7 - * & * ",
"d.a & i { :.0., 0 c.c.0 q _ m * * O.z.c.c.c.- C c.c.D Q Y r J P m 2 0 c.: : e Q Q O.c.& C t n N L E ! Q U % + * M N g * * * $ % ",
"z $ & & c.e.` , 0 c.k./ ^ 0 : c.c.c.l.x.l.: 0 7 : c.#.,.L e : 0 q 0 0 c.c.c.W Q ~ W ~ C & : c.3 c.! Q ! c.c.$ * * 5 r 7 c.c.& 2 ",
"c.& & F ;.: 2 > c.z.k.q 9 > ] c.c.c.c.x.:.0 0 0 > c.k.x.c.9 : c., 0 , c.c.* l Z U D K L u c.> 1 8 F W t 0 q & & $ c.0 : ^ 0 2 : ",
"Q l & v f.: 2 0 c.c.c.c.L s.z.c.c.* * F x.w.0 ; 9 x.k.+.9 0 0 c.5 9 ~ c.c.* # & Z J : q : c.: / -. .r 7 7 2 * * $ c.7 c.> > q > ",
"! t 3 4 w.2 0.k.c.c.x.k.y.c.c.c.c.& $ % ^ c.0 f.s.k.s.& * c.<.d.c.c.! Q 4.& & & # 6 0 9 c.c.7 ' z.k.* * 3 % c.c.c.c.& c.>   q 1 ",
"_ q 0 0 / 2 k.x.c.c.x.x.x O & c.c.& % 2 > c.@.k.z.x.M * & c.k.k.k c.c.6.R i G $ # o c.c.c.W Q e.l.j.9.* c.7 7 0 7 & & & * % 7 * ",
"q > 0 q x D c.c.c.x.k.z.g.& & & c.c.c.: e N Q 3.j.z.c.,.O.c.d.G * * c.c.z.j.*.& & * c.c.Y I i.h.k.z.z.c.c.2 7 0 c.c.& * & * % * ",
"c.2 0 c.Q Q ! c.c.c.c.j.*.3 * * c.c.c.: B Q Q H c.x.c.y.c.c.c.% * * c.c.x.x.O.& & j k.k., q 5 c.c z.j.< 9 3 % _ c.c.$ & & c.* & ",
"c.c.c.c.W Q c.c.c.c.:.M q 7 v c.c.c.& & c.c.Q f c.~ c.c., : 7 : c.c.& c.c.c.c.3 c.k.z.:.0 > * & * 8.0.> q 0 W Q c.c.C D 7 < < < ",
"d.c.c.c.c.r.c.c.<.;.0 0 > > t ! ! l & & $ c.c.c.Q W ! c., 9 q : < * & & c.c.: 0 4 c.c.<.: c.* & $ c.c.m 1 4 E Q c.E Q Y 9 0 q , ",
"4.U ! ! i.x.c.c.[ 0 0 q 7 2 l E S c.& & $ c.c.c.c.f ~ c.9 9 0 ` >.c.* c.* c.0 :.{ c.c.& * c.C c.% 0 :.w.k & V ! c.c.c.P 7 : , 2 ",
"6.Q ! f L x.c.f.c.c.0 d.y.* & c.c.* & * * c.7 c.c.c.c.c.Q R ` z.z.<.c.c.c.0 ^ j.k.c.c.& & & S c.6 9 k.h.,.>.6 Q * & c.c.Q e > * ",
"I ~ Q ! c.c.c.k.c.c.9 f.e.0.c.2 c.* * c.c.c.0 0 c.c.c.f c.c.c.s.x.z.x.c.c.c.c.k.z.c.c.& & & U i.W W 6 q ....: 7 5 & c.Q ! c.c.& ",
"^ c.S y c.c.c.x.c.c.D q q K r , 7 +.N j.c.c.0 0 c.c.c.c.c.0 0 f.h.j.$.c.c.0 q  .c.c.c.* * v a.g.3.E 7 0 ( %.0 : ;.y.c.c.c.7 7 5 ",
"h.k.N & * c.c.c.c.c.W 0 0 N I 0 7 k.h.f.* c.c.c.c.c.c.c.c.0 , X.c.d.k.k.c.  q 8 m c.c.h.,.y.x.x.<.c.c.%.e.Y B 2 ` d.c.c.: 0 ^ 7 ",
"f.x.,.i & $ c.c.c.* i j g.4.Q L * M d.P * * c.c.c.c.c.c.c.c.I ! c.c.O.d.c.c.9 x Q ! k.z.y.h.f.-., 0 c.h.+.Y ! i * & c.c.c.c.7 c.",
"z.k.x.c.c.c.c.c.c.& & P i.L Q U & $ * * c.c.c.c.c.c.c.c.~ Q ! ! S & & * c.c.c.c.~ Q r.c.c.c.>...> : ) x $ 5 h l $ c.c.c.c.k.) 0 ",
"6 d.f.c.c.c.c.c.c.& & z % & l c.l % * c., . c.c.c.c.c.c.! Q ! W j & & $ c.x.f.z.c.c.Q Q ! c.* 2 : c.c.c.$ a Z Y N c.c.c.k.h., , ",
"> c.s.k.c.c.c.c.* & c.4 3 * A Q ! m 2 0 q , c.c.c.c.c.c.c.@.6.Q > 5 c.* c.x.k.d.c.c.! W * & $ * : c.c.A * l ! Q m c.c.c.z.<.c.0 ",
": c.c.x.x.c.c.c.c.: c.] v j D Q Q 0 : 0 q , c.c.c.c.c.c.Q *.z.g.> , 0 c.c.c.z.c.c.c.c.c.* * $ 1 : : T Q Q p #.Y c.c.c.c.4.,.z.{ ",
"0 7 : c.c.c.c.c.0 0 q T Q Y c.c.! c.c.c.: : c.c.c.c.c.~ c.<.c.c.c.c.c.c.c.c.c.c.j.c.c.c.* c.# 3 % & c.Q W o.0 O.c.c.c.! 8.,.j.R ",
"> 0 , : c.c.c.c.c.: 0 9 W I e 0 c.0 9 3 c.c.c.c.c.c.c.0 q c.c.: c.c.c.c.c.c.c.c.x.c.c.c.c.c.c.* & # c.S B / 0 :.c.c.c.x.j.d.@ ^ ",
"c.q 0 c.c.c.c.Q Y 2 c.m H :.{ 7 . q 0 4 c.c.c.c.c.c.c.0 , , 7 0 0 c.c.c.c.c.c.c.c.c.c.c.c.c., 2 * & # * *.k./ Q c.c.c.z.z.k./ , ",
"0.: : q / c.c.c.c.* & * z h.h.] T c.N Q c.c.c.c.c.c.c.c.> c.0 0 7 c.c.c.c.c.c.c.c.c.c.c.c.0 ^ 9 3 c.c.c.k.k.j.~ c.c.c.c.x.k.c.c.",
"4.W m , c.c.c.! C $ & & <.k.f.d.c.c.Q ! c.x.c.c.c.c.c.c.c.c.c.c.0 Q Q c.c.c.c.c.c.c.c.c.c.: 0 0 / c.c.~ a.c.c.7 > c.c.c.c.c.: c.",
"0 m c.c.c.c.c.! c.$ * l ! g.* $ q r K c.d.j.c.c.c.c.c.c.c.c.c.F j.~ Q ! c.c.c.c.c.c.c.c.c.: X.{ f.@.&.5.c.* $ 4 , : c.c.c.0 0 < ",
"0 , c.c.c.c.c.c.c.X c.2.4.t.* * < 0 : M d.k.c.c.c.c.c.c.c.c.c.k.j.c.c.c.c.c.c.c.c.c.c.c.c.c.c.c.X.n d.y.< - i c.c.X c.c.c.: 0 0 ",
"7 c.c.c.c.c.c.c.c.c.^ f.:./ i C c.* 5 b 2.! c.c.c.c.c.c.c.c.c.*.*.c.c.c.c.c.c.c.c.c.c.c.c.c.c.c.: 0 c.:.c.5 v l & * c.c.c.0 7 : ",
"* c.c.c.c.c.c.c.c.0 > c.:.v x Q * $ h Q ! c.c.c.c.c.c.c.c.c.* & i $ c.c.c.c.c.c.c.c.c.c.c.c.c.0 q , 2 7 A W Q S * * c.c.c.c.* + ",
"& c.W c.c.c.c.c.c.0.{ 9 1 U ~ c.G * S W c.c.c.c.c.c.c.c.c.c.C & & $ c.c.c.c.c.c.c.c.c.c.c.c.c.c.7 7 q 2 x ! c.j.#.0.c.c.c.l & & ",
"& & E W c.c.c.c.c.z.j...6 m B z.d.9.k.t.c.c.c.c.c.c.c.c.c.~ Q & c.c.c.c.c.c.c.c.c.c.c.c.c.c.c.c.c.6 : , > : { y.9.x.j.c.c.c.$ g ",
"* & c.l c.c.c.c.c.k.k.<., 0 > d.d.#.k.k.c.c.c.c.c.c.c.c.c.c.s.G $ c.c.c.c.c.c.c.c.c.c.c.c.c.c.c.Q W c.c.c.7 c.c.c.U a.c.c.c.* N ",
"9 3 * & & c.c.c.c.c.x.4.W c.: c.c.A 2.4.c.c.c.c.c.c.c.c.c.x.k.y.$ c.c.c.c.c.c.c.c.c.c.c.c.c.c.c.! Y q c.c.c.& & * D ~ c.c.c.# z ",
"q 2 & * & c.c.c.c.c.k.a.f i.c.& $ * c.c.c.c.c.c.c.c.c.c.c.c.c.c.X c.c.c.c.c.c.c.c.c.c.c.c.c.c.c.c.6 q c.c.x.O.& * c.c.c.c.& & c.",
"9 q M c.c.c.c.c.c.c.x.c.c.x.k.o.* & c.c.c.c.c.c.c.c.c.c.c.c.c.O.s.c.c.c.c.c.c.c.c.c.c.c.c.c.c.x.d.c., , c.z x X c.c.c.c.c.c.c.& ",
"7 f.k.x.c.c.c.c.c.c.k.c.c.v i * c.c.c.c.c.c.c.c.c.c.c.c.c.c.k.x.x.c.c.c.c.c.c.c.c.c.c.c.c.c.c.k.j.c.c.c.* * * : c.c.c.c.c.c.X * ",
"* c.k.c.c.c.c.c.c.c.k.c.c.& & < 0 c.c.c.c.c.c.c.c.c.c.c.c.c.c.k.c.c.c.c.c.c.c.c.c.c.c.c.c.c.c.c.3.Q c.c.c.c.9 : c.c.c.c.c.c.* & ",
"* c.c.c.c.c.c.c.c.c.c.c.c.c.c.^ 0 c.c.c.c.c.c.c.c.c.c.c.c.c.c.X.c.c.c.c.c.c.c.c.c.c.c.c.c.c.c.c.~ Q c.c.c.o.....c.c.c.c.c.c.c.>.",
"& & & c.c.c.c.c.c.c.c.c.z.>.<.:.:.c.c.c.c.c.c.c.c.c.c.c.c.c.c.0 : c.c.c.c.c.c.c.c.c.c.c.c.c.c.c.! ~ c.c.j.] :.c.c.c.c.c.c.c.c.x.",
"& & & c.c.c.c.c.c.c.c.c.z.0._ c.c.c.c.c.c.c.c.c.c.c.c.c.c.c.: 0 c.c.c.c.c.c.c.c.c.c.c.c.c.c.c.c.c.c.c.c.e 0 0 c.c.c.c.c.c.c.c.9.",
"* X & c.c.c.c.c.c.c.c.c.q c.0 0 c.c.c.c.c.c.c.c.c.c.c.c.c.c.c.. c.c.c.c.c.c.c.c.c.c.c.c.c.c.c.c.c.c.c.: 7 : : c.c.c.c.c.c.c.z.k.",
"c.c.q c.c.c.c.c.c.c.c.c.0 0 c.: c.c.c.c.c.c.c.c.c.c.c.c.c.c.c.c.c.c.c.c.c.c.c.c.c.c.c.c.c.c.c.c.c.c.c.c.c.l c.c.c.c.c.c.c.c.$.h.",
"c.6 0 c.c.c.c.c.c.c.c.c.c.c.C c.c.c.c.c.c.c.c.c.c.c.c.c.c.c.c.c.c.c.c.c.c.c.c.c.c.c.c.c.c.c.c.c.c.c.c.c.c.Y E c.c.c.c.c.c.c.c.c.",
"y.c.> 0 c.c.c.c.c.c.c.c.c.7 W ! c.c.c.c.c.c.c.c.c.c.c.c.c.c.c.c.c.c.c.c.c.c.c.c.c.c.c.c.c.c.c.c.c.c.c.c.0 e 1.c.c.c.c.c.c.c.c.Y ",
"z.c.c.c.c.c.c.c.c.c.c.c.c.0 c.i.c.c.c.c.c.c.c.c.c.c.c.c.c.c.c.c.c.c.c.c.c.c.c.c.c.c.c.c.c.c.c.c.c.c.c.c., c.d.x.c.c.c.c.c.c.! D ",
"c.Q c.c.c.c.c.c.c.c.c.c.c.0 c.k.c.c.c.c.c.c.c.c.c.c.c.c.c.c.c.c.c.c.c.c.c.c.c.c.c.c.c.c.c.c.c.c.c.c.c.c.c.c.a.c.c.c.c.c.c.c.c.$ ",
"d.7.c.c.c.c.c.c.c.c.c.c.c.c.c.d.c.c.c.c.c.c.c.c.c.c.c.c.c.c.c.c.c.c.c.c.c.c.c.c.c.c.c.c.c.c.c.c.c.c.c.c.c.c.Q c.c.c.c.c.c.c.c.& ",
"z.c.c.c.c.c.c.c.c.c.c.c.c.c.! f c.c.c.c.c.c.c.c.c.c.c.c.c.c.c.c.c.c.c.c.c.c.c.c.c.c.c.c.c.c.c.c.c.c.c.c.c.c.c.c.c.c.c.c.c.c.c.c."
};
