/* XPM */
static char *_758804014154[] = {
/* columns rows colors chars-per-pixel */
"64 64 126 2 ",
"   c #3B5A0B",
".  c #2C4219",
"X  c #35471F",
"o  c #354E1A",
"O  c #39541F",
"+  c #3E5D1E",
"@  c #3F4F26",
"#  c #3A5621",
"$  c #3C5922",
"%  c #425A16",
"&  c #405F1D",
"*  c #4E760E",
"=  c #4F780F",
"-  c #50780F",
";  c #446515",
":  c #486415",
">  c #476C16",
",  c #496D15",
"<  c #43631B",
"1  c #4B6618",
"2  c #47691A",
"3  c #4B6C1B",
"4  c #4D7412",
"5  c #4E711B",
"6  c #517614",
"7  c #537B12",
"8  c #587F16",
"9  c #54751C",
"0  c #567A19",
"q  c #597D1C",
"w  c #425D25",
"e  c #45532A",
"r  c #455E29",
"t  c #545D35",
"y  c #466225",
"u  c #486424",
"i  c #496921",
"p  c #476029",
"a  c #4B632C",
"s  c #4E6A2A",
"d  c #526F23",
"f  c #51602B",
"g  c #536D2B",
"h  c #5A6D2D",
"j  c #547224",
"k  c #597624",
"l  c #5C7A24",
"z  c #55702C",
"x  c #5A752B",
"c  c #5E7A29",
"v  c #4F6530",
"b  c #516631",
"n  c #5A6634",
"m  c #556933",
"M  c #596D34",
"N  c #5D6E39",
"B  c #5C7432",
"V  c #5D7831",
"C  c #5E703A",
"Z  c #627D2D",
"A  c #606F3A",
"S  c #627634",
"D  c #687737",
"F  c #637B32",
"G  c #6A7C37",
"H  c #63733D",
"J  c #68773F",
"K  c #657A39",
"L  c #6B7C3D",
"P  c #677540",
"I  c #697641",
"U  c #6D7A44",
"Y  c #717C46",
"T  c #727D48",
"R  c #5A8017",
"E  c #5D821B",
"W  c #61861E",
"Q  c #628522",
"!  c #658823",
"~  c #6A8C25",
"^  c #65832E",
"/  c #678829",
"(  c #6C8C2C",
")  c #6D9027",
"_  c #6F9128",
"`  c #72932C",
"'  c #658135",
"]  c #698535",
"[  c #6D8A34",
"{  c #6C8339",
"}  c #6F8B38",
"|  c #728637",
" . c #728C3A",
".. c #759333",
"X. c #789734",
"o. c #7B9A33",
"O. c #77933C",
"+. c #7A943D",
"@. c #7E9A3C",
"#. c #748344",
"$. c #7C8D46",
"%. c #758148",
"&. c #7F8F48",
"*. c #7F9345",
"=. c #7F9940",
"-. c #829E3C",
";. c #81A036",
":. c #85A23C",
">. c #88A43F",
",. c #8BA93F",
"<. c #819744",
"1. c #839D42",
"2. c #889E47",
"3. c #839449",
"4. c #859848",
"5. c #8A9E49",
"6. c #86A042",
"7. c #8BA545",
"8. c #8EA944",
"9. c #8EA448",
"0. c #91AB46",
"q. c #90A749",
"w. c #94AD49",
"e. c #97B149",
"r. c #98B34A",
"t. c None",
/* pixels */
"t.t.t.t.t.t.t.t.t.t.t.t.t.t.t.* - t.t.r.t.t.t.t.t.t.t.t.t.t.t.t.t.t.t.t.t.t.t.t.t.t.t.t.t.t.t.w.| t.t.* t.t.t.t.t.t.t.t.t.t.t.t.",
"t.t.* R t.t.t.t.t.t.t.t.t.t.7 = 6 -.w.w.q.t.7 7 ; t.t.t.t.t.t.t.t.t.t.t.t.t.t.t.t.t.t.* 8 t.+.q.e.r.5 - 7 t.t.t.t.t.t.t.t.t.t.t.",
"t.t.7 7 7 Y Y t.t.t.t.t.t.t.7 7 8 :.1.4.' 7 7 7 + $ $ t.t.t.t.t.t.t.t.t.t.t.t.t.t.$ # 4 7 * 9 <.1.0.R R 7 7 t.t.t.t.t.t.t.t.t.t.",
"t.t.t.4 u I H t.t.t.t.t.t.t.t.q k s I Y J Q W 7 2 $ t.t.t.t.t.t.t.t.t.t.t.t.t.t.t.O y 7 7 ` z U U t.l 7 t.t.t.t.t.t.t.t.t.t.t.t.",
"t.r.7.w O a t.$ t.t.t.t.t.t.t.S T M t.r t.w.o.:. .$ $ t.t.t.t.t.t.t.t.t.t.t.t.t.$ $ z 8.X.9.Q r m b Y U t.t.t.t.8 * t.t.t.t.t.t.",
"t.w.,.+.t.> t.$ + 7 t.t.t.7 7 T U C w # u [ w.r.0.t.t.t.t.t.t.t.t.t.t.t.t.t.t.t.t.t.t.r.e...g $ $ b U Y Z 7 * 7 7 6 k M U t.t.t.",
"t.7 R ; * 7 * 3 4 q 7 J J t.9 M J m O $ $ y 0.t.t.t.t.t.t.t.t.t.t.t.t.t.t.t.t.t.t.t.t.t.8.l $ $ # $ U m x t.* - * 7 9 Y U T t.t.",
"t.R * * - - 7 Z F T d P Y t.$ # p V ' V $ 7 7 t.t.t.t.t.t.t.t.t.t.t.t.t.t.t.t.t.t.t.t.:.! 7 < y  .x a # $ t.t.t.t.4 a I U t.t.t.",
"t.t.w.~ - 7 7 q U U H r T t.$ $ {  .8.t.> 7 7   t.t.t.t.t.t.t.t.t.t.t.t.t.t.t.t.t.t.t.* 7 - 7 9 @.' =.$ $ t.r.@.u $ $ a T t.t.t.",
"t.t.8.F S x , m U I X ; t.6.g a B 3 6 t.7 t.t.t.t.t.t.t.t.t.t.t.t.t.t.t.t.t.t.t.t.t.t.* - 6 4 * 4 8 K g M 7.w.e. .$ $ $ t.$ $ $ ",
"t.t.u +. .w O $ z L < , 4 7.3.U #.6 7 8 * H t.t.t.t.t.t.t.t.t.t.t.t.t.t.t.t.t.t.t.t.t.t.X.{ d 7 7 7 { U $.q.-.o.q.t.t.7 t.$ $ O ",
"t.t.t.e.w.F r $ 2 7 w + & T 7.7.e.* 7 * 4 U t.t.t.t.t.t.t.t.t.t.t.t.t.t.t.t.t.t.t.t.t.t.r.#.x l 7 * o.q.@.3.U Z q t.= 7 7 4 t.# ",
"t.t.L :.:.9.U 4 7 ] $ $ $ m  .e.0.= 7 t.t.t.t.t.t.t.t.t.t.t.t.t.t.t.t.t.t.t.t.t.t.t.t.t.g $ m t.7 * o.w.=.B I U 0 + t.7 - E w.t.",
"t.T J 8 7 Q Z 7 7 4 > w a m $ [ { ..* t.t.t.t.t.t.t.t.t.t.t.t.t.t.t.t.t.t.t.t.t.t.t.t.t.t.$ r M c c } +.$ u T F w $ u 0 < t.r.w.",
"t.t.F E 7 - t.t.7 7 0 =.1.B # $ O.w.t.t.t.t.t.t.t.t.t.t.t.t.t.t.t.t.t.t.t.t.t.t.t.t.t.t.a $ a U U 1.7.u O $ w.} w O I I $ t.u B ",
"t.t.j 7 ! W t.t.7 & ..w.9.B # O t.t.t.t.t.t.t.t.t.t.t.t.t.t.t.t.t.t.t.t.t.t.t.t.t.t.t.t.T U I t.T t.t.$ $ r q.0.-.a Y U a $ $ $ ",
"t.$ $ 6.e.0.U T A + g ] 5.T y t.t.e.t.t.t.t.t.t.t.t.t.t.t.t.t.t.t.t.t.t.t.t.t.t.t.t.t.t.U U d 7 t.r.h t.w J %.q. .+ t.t.t.w $ t.",
"t.t.h w.r.1.Y Y Y w $ O N Y F 4 o.w.t.t.t.t.t.t.t.t.t.t.t.t.t.t.t.t.t.t.t.t.t.t.t.t.t.t.H k l - W w.8.0 q U Y J 5 6 < a U S 3 t.",
"t.t.T 9.g O 2 j S < w & 2 x 2 - E t.t.t.t.t.t.t.t.t.t.t.t.t.t.t.t.t.t.t.t.t.t.t.t.t.t.$ O O.e.W #.t.` * 5 z t.4 * - x U U U l t.",
"t.T T t.O $ O w g S j 2 $ $ $ 6 t.t.t.t.t.t.t.t.t.t.t.t.t.t.t.t.t.t.t.t.t.t.t.t.t.t.t.t.x e.q.7.T U t.* + $ $ 3 4 8 x T U c 7 t.",
"t.t.t.7 + O $ P I I U 7 < $ < t.t.r.r.t.t.t.t.t.t.t.t.t.t.t.t.t.t.t.t.t.t.t.t.t.t.t.t.t.T 1.t.t.;.8.t.t.< $ u B D x l t.Y t.t.t.",
"t.t.t.3 a v w P Y U ] 7 = z > t.t.9.3.t.t.t.t.t.t.t.t.t.t.t.t.t.t.t.t.t.t.t.t.t.t.t.t.t.T t.$ a <.2.:.t.* + q 4 J H t.7 t.t.t.t.",
"t.t.t.I Y Y N H I U ' 4 7 * R - 4 t.Y t t.t.t.t.t.t.t.t.t.t.t.t.t.t.t.t.t.t.t.t.t.t.t.t.t.t.+ m U J < 7 7 * t.l t.j 7 7 7 t.t.t.",
"t.t.t.t U U P { 9 #.r & 2 * - 7 c U Y T t.t.t.t.t.t.t.t.t.t.t.t.t.t.t.t.t.t.t.t.t.t.t.t.t.t.* U Y T N - 7 * t.3 t.X.~ 7 t.t.t.t.",
"t.t.t.% U #.x 7 * W < p $ < ..@.t.U Y P t.t.t.t.t.t.t.t.t.t.t.t.t.t.t.t.t.t.t.t.t.t.t.t.t.m I I P Y M / :.3 $ $ ' e.:.q H t.t.t.",
"t.t.t.t.B j l R 4 9 3 z a # ' x $ r 4.+.$ $ t.t.t.t.t.t.t.t.t.t.t.t.t.t.t.t.t.t.t.t.t.t.t.w w ' w.g w w 1.. t.g e.e.w.:.T U t.t.",
"t.t.t.$ $ [ e.8.0 N U Y M $ a $ $ $ 6.6.u $ O t.t.t.t.t.t.t.t.t.t.t.t.t.t.t.t.t.t.t.t.t.O $ $ [ w.s $ $ t.t.t.t.q.r.r. .t.t.t.t.",
"t.t.$ a s 7.q.6.F U U &.w.} -.$ s z w.w.+.e t.t.t.t.t.t.t.t.t.t.t.t.t.t.t.t.t.t.t.t.t.t.t.c ^ q.r.F B $ t.t.t.Y #.t.$ o , - * t.",
"t.t.t.t.] e.r.e.e.c 0 ..1.1.r. .T $.t.e.t.Y T t.t.t.t.t.t.t.t.t.t.t.t.t.t.t.t.t.t.t.t.t.Y Y { O. .#.#.J t.t.T T t.t.$ O + * * * ",
"t.t.t.w P &.;.t.t.* 7 R t.t.H n t.7 7 t.t.5.%.t.t.t.t.t.t.t.t.t.t.t.t.t.t.t.t.t.t.t.t.t.%.3.q.x 5 6 t.t.t.t.t.t.t.u O $ $ t.< t.",
"t.t.t.H T F , $ O 2 7 7 < O H K 7 * - t.t.8.r.t.t.t.t.t.t.t.t.t.t.t.t.t.t.t.t.t.t.t.t.t.{ e...s 4 4 - t.t.t.t.t.7 6 < t.@ $ $ $ ",
"t.t.t.$.$.X.x $ $ u X.9 $ $ t.t.t./ 4 * 7 1 r.t.t.t.t.t.t.t.t.t.t.t.t.t.t.t.t.t.t.t.t.t.e.] 7 4 * E R t.t.t.t.t.t.c t.P v O $ t.",
"t.t.t.7.E E 3 + t.B r $ $ t.t.U 4.:.8 7 7 * t.t.t.t.t.t.t.t.t.t.t.t.t.t.t.t.t.t.t.t.t.t.t.t.7 7 = ` w.U t.t.t.t.a T U t.L $ $ $ ",
"t.t.: t.= * * t.I a O O < t.t.t.7.+.6.7 t.t.t.t.t.t.t.t.t.t.t.t.t.t.t.t.t.t.t.t.t.t.t.t.t.t.c 7 ` 7.8.t.t.t.t.t.$ U U t.q.@.V ] ",
"t.t.7 7 t.u T t.Y v $ $ > ` r.0.t.e.7.2 t.t.t.t.t.t.t.t.t.t.t.t.t.t.t.t.t.t.t.t.t.t.t.t.t.w...) 1.0.t.6.r.r.t.t.t.c 7 -.9.8.6.w.",
"t.t.t.t.r v U U t.<.V g l W w.>.0 W R R t.t.t.t.t.t.t.t.t.t.t.t.t.t.t.t.t.t.t.t.t.t.t.t.t.c - R 8 ) 4 X.w.t.t.t.t.7 6 ` 1.e.t.t.",
"t.t.t.t.M M U t.r.q.6.6.e.r.7.X.* 7 t.- 7 t.t.t.t.t.t.t.t.t.t.t.t.t.t.t.t.t.t.t.t.t.t.t.* * 7 * * * 7 _ 1.e.t.t.t.t.4 t.t.t.t.U ",
"t.t.t.7 j { * * 6.6.e.( r.1.O + g k t.t.t.t.t.t.t.t.t.t.t.t.t.t.t.t.t.t.t.t.t.t.t.t.t.t.-   y t.t.Z g t.$ $ t.t.t.t.t.$ $ $ r U ",
"t.t.t.* t.` 7 = ! E 0 j f O.r $ M U t.t.t.t.t.t.t.t.t.t.t.t.t.t.t.t.t.t.t.t.t.t.t.t.t.t.t.t.J U t.Y I $ O $ t.t.t.e.1.z $ $ $ t.",
"t.t.t.t.t.4.t.t.> $ u U U N w $ r t.Y t.t.t.t.t.t.t.t.t.t.t.t.t.t.t.t.t.t.t.t.t.t.t.t.t.t.7 9 U U t.m $ # $ t.t.t.q.6.F O . $ t.",
"t.t.t.t.T #.r.t.$ O $ $ t.t.t.a I r j t.t.t.t.t.t.t.t.t.t.t.t.t.t.t.t.t.t.t.t.t.t.t.t.t.t.7 t.7.F t.H H $ t.t.t.t.s $ y $ t.t.t.",
"t.t.t.t.t.t.e.w.F O # p t.t.$ w F 9 E 0 t.t.t.t.t.t.t.t.t.t.t.t.t.t.t.t.t.t.t.t.t.t.t.t.t.t.t...E 4 l m $ $ t.t.t.$ $ & * t.t.t.",
"t.t.t.t.t.t.1. .t.$ t. .e.$ $ $ k 7 7 Q r.t.t.t.t.t.t.t.t.t.t.t.t.t.t.t.t.t.t.t.t.t.t.t.t.t.G O.7 - 7 r $ $ t.t.t.$ t.3 7 * t.t.",
"t.t.t.t.t.t.O $ $ t.t.5.t.t.t.. & t.7 -.w.t.t.t.t.t.t.t.t.t.t.t.t.t.t.t.t.t.t.t.t.t.t.t.t.t.e.q.q t.< t.$ t.t.t.t.t.t.7 7 * t.t.",
"t.t.t.t.t.t.$ $ < - q U t.t.t.t.$ O + S ] t.t.t.t.t.t.t.t.t.t.t.t.t.t.t.t.t.t.t.t.t.t.t.t.t.h O.t.O $ $ t.t.t.t.r.t.0.o.X.W t.t.",
"t.t.t.t.t.t.t.t.R 7 0 t.t.t.t.t.$ $ O $ $ t.t.t.t.t.t.t.t.t.t.t.t.t.t.t.t.t.t.t.t.t.t.t.t.t.$ $ $ $ $ t.t.t.t.t.q.+.! 8.t.t.t.t.",
"t.t.t.t.t.t.t.^ 7 R * t.t.t.t.t.t.t.t.$ $ t.t.t.t.t.t.t.t.t.t.t.t.t.t.t.t.t.t.t.t.t.t.t.t.t.$ $ t.t.t.t.t.t.t.t.` l - * t.t.t.t.",
"t.t.t.t.r.q.V w.:.0.t.t.t.t.t.t.t.t.$ b t.t.t.t.t.t.t.t.t.t.t.t.t.t.t.t.t.t.t.t.t.t.t.t.t.t.t.b w . t.t.t.t.t.* 7 t.7 * t.t.t.t.",
"t.t.t.t.t.w.^ q t.t.t.t.t.t.t.t.t.t.t.Y x t.t.t.t.t.t.t.t.t.t.t.t.t.t.t.t.t.t.t.t.t.t.t.t.t.2 U H $ t.t.t.t.t.7 7 7 t.- t.t.t.t.",
"t.t.t.t.t.t.5 R 7 t.t.t.t.t.t.t.t.t.t.t 0 7 t.t.t.t.t.t.t.t.t.t.t.t.t.t.t.t.t.t.t.t.t.t.t.t.7 D U t.t.t.t.t.t.* t., t.t.t.t.t.t.",
"t.t.t.t.- 7 , 7 7 t.t.t.t.t.t.t.t.t.D r.4 * t.t.t.t.t.t.t.t.t.t.t.t.t.t.t.t.t.t.t.t.t.t.t.* 7 t.5.t.t.t.t.t.t.t.t.t.U t.t.t.t.t.",
"t.t.t.t.8 4 6 t.* t.t.t.t.t.t.t.t.t.w.r.-.t.t.t.t.t.t.t.t.t.t.t.t.t.t.t.t.t.t.t.t.t.t.t.t.t.t.w.w.t.t.t.t.t.t.t.t.6 U U t.t.t.t.",
"t.t.t.t.t.t.t.t.t.t.t.t.t.t.t.t.t.t.t.{ #.t.t.t.t.t.t.t.t.t.t.t.t.t.t.t.t.t.t.t.t.t.t.t.t.t.U 9.t.t.t.t.t.t.t.t.7 7 t.t.t.t.t.t.",
"t.t.t.t.t.t.g U t.t.t.t.t.t.t.t.t.t.t.t.t.U t.t.t.t.t.t.t.t.t.t.t.t.t.t.t.t.t.t.t.t.t.t.t.U %.t.t.t.t.t.t.t.t.t.* * t.0.r.t.t.t.",
"t.t.t.t.t.- 7 H T t.t.t.t.t.t.t.t.t.t.e.e.t.t.t.t.t.t.t.t.t.t.t.t.t.t.t.t.t.t.t.t.t.t.t.t.t.t.w.t.t.t.t.t.t.t.t.t.t.t.q.e.t.t.t.",
"t.t.t.t.t.7 * t.e.t.t.t.t.t.t.t.t.t.t.t.t.t.t.t.t.t.t.t.t.t.t.t.t.t.t.t.t.t.t.t.t.t.t.t.t.t.t.w.t.t.t.t.t.t.t.t.t.t.T T t.t.t.t.",
"t.t.t.t.t.* t.t.w.r.t.t.t.t.t.t.t.t.t.t.t.t.t.t.t.t.t.t.t.t.t.t.t.t.t.t.t.t.t.t.t.t.t.t.t.t.t.t.t.t.t.t.t.t.t.t.t.t.T T t.t.t.t.",
"t.t.t.t.t.t.t.t.7.| t.t.t.t.t.t.t.t.t.t.t.t.t.t.t.t.t.t.t.t.t.t.t.t.t.t.t.t.t.t.t.t.t.t.t.t.t.t.t.t.t.t.t.t.t.t.t.t.T t.t.t.t.t.",
"t.t.t.t.t.t.t.T T t.t.t.t.t.t.t.t.t.t.t.t.t.t.t.t.t.t.t.t.t.t.t.t.t.t.t.t.t.t.t.t.t.t.t.t.t.t.t.t.t.t.t.t.t.t.t.t.t.t.t.t.t.t.t.",
"t.t.t.t.t.t.t.T T t.t.t.t.t.t.t.t.t.t.t.t.t.t.t.t.t.t.t.t.t.t.t.t.t.t.t.t.t.t.t.t.t.t.t.t.t.t.t.t.t.t.t.t.t.t.t.t.t.t.t.t.t.t.t.",
"t.t.t.t.t.t.t.t.t.t.t.t.t.t.t.t.t.t.t.t.t.t.t.t.t.t.t.t.t.t.t.t.t.t.t.t.t.t.t.t.t.t.t.t.t.t.t.t.t.t.t.t.t.t.t.t.t.t.t.t.t.t.t.t.",
"t.t.t.t.t.t.t.t.t.t.t.t.t.t.t.t.t.t.t.t.t.t.t.t.t.t.t.t.t.t.t.t.t.t.t.t.t.t.t.t.t.t.t.t.t.t.t.t.t.t.t.t.t.t.t.t.t.t.t.t.t.t.t.t.",
"t.t.t.t.t.t.t.t.t.t.t.t.t.t.t.t.t.t.t.t.t.t.t.t.t.t.t.t.t.t.t.t.t.t.t.t.t.t.t.t.t.t.t.t.t.t.t.t.t.t.t.t.t.t.t.t.t.t.t.t.t.t.t.t.",
"t.t.t.t.t.t.t.t.t.t.t.t.t.t.t.t.t.t.t.t.t.t.t.t.t.t.t.t.t.t.t.t.t.t.t.t.t.t.t.t.t.t.t.t.t.t.t.t.t.t.t.t.t.t.t.t.t.t.t.t.t.t.t.t."
};
