/* XPM */
static char *_758804023895[] = {
/* columns rows colors chars-per-pixel */
"64 64 144 2 ",
"   c #38560A",
".  c #3B590B",
"X  c #2C4219",
"o  c #324A14",
"O  c #344D1A",
"+  c #395616",
"@  c #3E5C14",
"#  c #37511C",
"$  c #39541F",
"%  c #3D5C1E",
"&  c #3D4D25",
"*  c #3A5621",
"=  c #3C5922",
"-  c #435F10",
";  c #405F1D",
":  c #476D0F",
">  c #4D760E",
",  c #4F780F",
"<  c #50780F",
"1  c #436617",
"2  c #4A6517",
"3  c #466A15",
"4  c #496E13",
"5  c #43641B",
"6  c #4A661C",
"7  c #466919",
"8  c #4B6C1B",
"9  c #526A1F",
"0  c #4D7312",
"q  c #4E7119",
"w  c #517615",
"e  c #537B12",
"r  c #587F16",
"t  c #53751B",
"y  c #58771E",
"u  c #567919",
"i  c #597B1D",
"p  c #414E26",
"a  c #415424",
"s  c #415D24",
"d  c #4A562E",
"f  c #455F29",
"g  c #4A5829",
"h  c #545D35",
"j  c #456124",
"k  c #4B6625",
"l  c #4D6B22",
"z  c #47602A",
"x  c #4B632C",
"c  c #4D6929",
"v  c #516D24",
"b  c #536729",
"n  c #536D2C",
"m  c #547223",
"M  c #5A7723",
"N  c #5C7A24",
"B  c #55722B",
"V  c #5A742D",
"C  c #5D7A2B",
"Z  c #4F6530",
"A  c #516731",
"S  c #586633",
"D  c #556A33",
"F  c #5A6D36",
"G  c #5D6E39",
"H  c #5C7433",
"J  c #5F7A31",
"K  c #5F703A",
"L  c #60772E",
"P  c #627A2C",
"I  c #627636",
"U  c #637C33",
"Y  c #697C37",
"T  c #64733D",
"R  c #68773E",
"E  c #667939",
"W  c #6A7B3D",
"Q  c #677540",
"!  c #697741",
"~  c #6D7A44",
"^  c #717C46",
"/  c #737D48",
"(  c #5A8017",
")  c #5D821B",
"_  c #61861E",
"`  c #63881F",
"'  c #5F8220",
"]  c #638425",
"[  c #668922",
"{  c #6A8D25",
"}  c #64832A",
"|  c #6A872D",
" . c #6D8C2B",
".. c #708F2F",
"X. c #6F9127",
"o. c #6E9029",
"O. c #73932C",
"+. c #77982E",
"@. c #668133",
"#. c #6A8536",
"$. c #6D8935",
"%. c #6C843A",
"&. c #6E8A38",
"*. c #718437",
"=. c #728D36",
"-. c #70853E",
";. c #728D3A",
":. c #798F3E",
">. c #749333",
",. c #789534",
"<. c #7B9B33",
"1. c #76913B",
"2. c #7A953D",
"3. c #7E993D",
"4. c #6F8140",
"5. c #748245",
"6. c #788647",
"7. c #7A8C45",
"8. c #778249",
"9. c #798748",
"0. c #7D8C48",
"q. c #7D9242",
"w. c #7F9940",
"e. c #829D3D",
"r. c #81A037",
"t. c #86A23D",
"y. c #8AA63F",
"u. c #819545",
"i. c #839D42",
"p. c #899F47",
"a. c #829349",
"s. c #869849",
"d. c #899E49",
"f. c #86A142",
"g. c #8BA544",
"h. c #8EA944",
"j. c #8EA449",
"k. c #91AC46",
"l. c #90A749",
"z. c #94AC49",
"x. c #96B247",
"c. c #97B14A",
"v. c #98B34A",
"b. c None",
/* pixels */
"r e > b.b.b.z.z.b.b.= * * * 4 e e q = = ; 0 0 b.b.b.b.r ; b.= N O.+.y.r.x.c.z.f.B b.1 q b.b.b.b.e 4 % = s w e > 1 = $ = = b.{ x.",
") r O.,.#.@.v.g.e w = = b.1 b.w M w = = q , e C ~ E m e = = ; 0 ( > } < <.x.z.#.= = 0 8 V R R y e w 7 = ; e M e b.1 b.= s < e <.",
";.e <.z.&.1.H v < e 5 0 0 ( > g D ; = 7 ( , e > ~ Y q e 0 1 = b.1 3 U C { ' f.i.= 3 r e e C U > < , ) % = j G b.> r 0 4 5 w 4 7 ",
"^ <.c.z.h.@.c 1 r 0 ..( , , b.b.* = = V N q e 3.0.~ e 0 e 1 = z.v.= ~ ~ E C c.w.= b.> ( e L E 1 e j } c = = = b.i e < O.t 0 5 % ",
"b.+.r.g.h.} w e O.t.B N m e ~ F = = V g.z.;.@ = @.2.) % 0 b.b.k.g.= Z ! ~ K v.z.b.b.0 ) x.3.U $ % U h.f.= = = ~ U w @ ; ;.&.= $ ",
"> e <  .n w e > { V = s x B 8.s.i.n 1.c.z.1.= $ j z.&.= $ 3 y.N k.&.s b.j = b.o.O.3 1 = z.k.i @.# f.z.k.H #.w.a.~ k = * H f.J * ",
"0 > 0 1 b.5 8 0 x.x.j * * K / p.z.U b.r { b.= = = 4.K = = q <.0 w.c.#.= = = k +.) % = = I } r ) W t.) r b.i.z.7.5.D z = c h.&.* ",
"2.>.e 4 ; * = 5 z.c.* b.s q.:.z.c.c.{ r r e b.b.l ^ ~ n j y.z.j.v.b.w.H Q E h.v.g.; # T u e < N U e e r r.v.c.z.%.%.b.x %.v.f.w.",
"z.[ r e ; $ = n 3.b.b.* b.z.i.&.f.j.[ < e > e w w U a.h.E 2.z.z.= #.z.q.Q D n j.' b.H z.} u r u F w > e >.z.2.1.g.q.= i.e.<.k.w.",
"@.V 3 ( 3 5 $ * | e 0 = b.z.H = @.8 M P b.4 e e w y 7.c.&.b.i.s = H c.q.f * = x k = g.l.E Y b.N z C U 5 5 ' c = ;.@.j t.i r ;.k ",
"%.f...> b.b.#.j.b.) o.6.~ b.q.b.0 ) ^ ^ b. .V e P b.= H &.b.z.*.$ = #.w.= * = m 7 j &.c X b.k ~ ~ w.c.J q r 4 &.J A ~ d.) 3 = j.",
"&.v.b.b.A b.b.@.b.&.{ ~ 6.V z.x.e L ~ ^ s.z.T N W b $ $ = {  .j $ = b.b.= b.* 7 r 0 = * * 1 V ^ ! W &.z.r e [ z.w.H 9.W o.= = z ",
"q.b.= = $ = = $ = #.z.b.b.z.z.1.b.e b.q.e.7.! ! / b.= = 5 r e 8 b.O = b.h.k.0 e e b.= = = b.t V ; * = @.( > b.z.c.c.z.y.z.k = = ",
"c.2.= = $ b.$ = = 7 < < b.k.2.#.b.b.b.;.# = f T ~ ~ = b.2.k.r e 5 = # = 2.z.[ < e _ t.U s ~ / H = * # * e 4 e y.2.b.X.r < 5 X * ",
"z.v.$ V $ 3 1 = b.3 , e  .z.3.= = b.b.X = $ = A ~ ~ G b.c.g.W W b.= = = o.+._ > O. .&.H T ~ ^ b.* * = * b.4 > _ i.z.) e > 1 = # ",
"v.b.b.z.#.e ] 3 b.b.b.e b.g.g.= = &.z.b.= = = K ! ~ R R ,.[ ~ ~ ~ b.b.= > > > i j.f.V % K ~ R V = * K Q # % : ) z.;.7 0 5 = * = ",
"j.s = s  .+.t.e e b.b.e r ] N = = %.c.b.b.b.; A b.b.G ~ R u L U N 3 e b.> > u ~ ~ %.b.= x i N m T ~ ~ ~ T % + = V V j = = = $ % ",
"c $ $ = b.y.[ < e b.z.) ( e > b.b.b.x.v.x.> e 0 > b.&.2.I y > e ( e e b.b.b.~ ~ ^ R / D * < b.5 b.~ ~ ^ b.b.% * * 1 u 0 b.b.= 4 ",
"b.= $ H +.> 3 > b.c.z.r w e ] b.b.b.b.v.<.e e e > b.z.x.b.w > b.< e , b.b.= x S T G P I a b., 3 8 H ~ i e w = = * b.e > ( e 3 > ",
"~ x = b g.> 4 r b.b.b.b.I f.c.b.b.= = V v.t.e : w v.z.$.w e e b.7 w / b.b.= # * F L < e w b., _ o.o.r 0 0 : = = * b.0 b., , ( , ",
"^ i 5 6 t.q e.k.b.b.v.c.i.b.b.b.b.= $ % ( b.e h.2.z.f.= = b.<.g.b.b./ ~ 5.% $ = $ 9 e > b.b.q { v.z.= = ; % b.b.b.b.$ b.,   r 3 ",
"] r e e ) 3 z.v.b.b.v.c.n O = b.b.= % 4 , b.%.z.f.c.B = = b.z.x.j b.b.9.~ s J $ $ o b.b.b.! ~ t.z.z.w.= b., 0 ( 0 = = = = % 0 % ",
"r > e r v K b.b.b.c.z.z.g.$ = * b.b.b.> y V ~ 6.1.z.b.2.%.b.j.H = = b.b.c.z.;.= = = b.b.R E s.k.c.v.v.b.b.3 0 e b.b.= = = = % = ",
"b.4 e b.~ ~ ^ b.b.b.b.z.;.5 = = b.b.b.> C ~ N u b.w.b.i.b.b.b.% = = b.b.v.v.) w = j l.z.< r 1 b.b c.l.; w 5 5 N b.b.# = $ b.= = ",
"b.b.b.b.! ~ b.b.b.b.<.V r < n b.b.b.= = b.C e e P ^ ~ b.< 0 > > b.b.= b.b.b.e e u 5.~ >.e < = $ = 2.e.e i e ! ~ b.b.A G q 1 1 3 ",
"j.b.b.b.b.a.b.b.w.>.e < , > i ^ ^ x * = $ b.5 0 n ^ ~ b.> > r < 1 = $ = b.b.> w c ~ E 2.< b.= = = b.b.N 3 6 Q ~ b.Q ~ R > e e w ",
"7.T ^ ^ a.v.b.b.} e e ( 0 4 x ! F b.* * $ h.&.= * K K b.t t e [ 1.b.= b.= f.3.% = D D = = b.A b.% e +.f.j = x / b.b.b.U > w < 0 ",
"9.~ ^ h I v.b.h.b.b.( g.i.= = b.b.* * = n k.h.m o b.b.= = Y [ v.c.3.b.b.b.k.h.;.&.1 = $ $ = F b.6 w c.k.1.1.8 ~ = = b.b.! t e * ",
"E ^ ~ ^ b.b.b.z.b.b.w h.y.3.b.3 b.= = b.b.e ) < > > 4 j x b.b.i.v.z.v.b.b.< ) <._ , 4 % * = T a.! ~ 8 r O.O.> 0 1 = b.~ ^ b.b.= ",
") b.F p b.b.b.v.b.b.K u ( P u e , $.V z.b.( , e b.e e j.] < e h.k.z.*.b.b.r < w b.e > t.H n g.j.8.T 0 e _ =.r > ,.i.b.b.b.0 w 1 ",
"k.z.C $ = b.b.b.b.b.R e < L E e > z.z.g.5 N g.| ~ l b.;.t.e < +.b.g.z.z.b.< <. .W V V j.g.i.c.v.3.b.b.>.y.R P 3 [ g.b.b.> e ) > ",
"h.c.2.s = $ b.b.b.= s v h.7.~ H = n g.U = #.g.4.~ R = = b.b.Y ^ b.b.#.g.b.b.t.%.~ ^ = = B h.j.>.< e b.k.$.E ^ s = * b.b.b.b.3 b.",
"c.z.v.b.b.b.b.b.b.= * U a.I ~ T = * = = b.@.= $ b.b.f = ! ~ ~ ^ F = = = b.b.j # F ! F s b.b.1.O., , ` n $ 1 j f * b.b.b.b.z.` r ",
"8 g.h.b.b.b.b.b.b.= = c % * x b.x % = b.<   = = A I ~ t W ~ ^ ~ 6 = * = b.c.@.= x R ! m W b.= 4 > b.b.b.= f F R V b.b.b.z.k.> , ",
", b.f.z.b.b.b.b.* = b.5 5 = F ~ ^ M 4 e r u s b.T ^ ~ e b.-.9.~ , 7 b.= b.z.H #.F ~ ~ N s $ $ = > b.b.D = x ^ ~ P b.b.b.z.3.b.e ",
"> b.b.v.v.b.b.b.b.> b.} n l F ~ R u > e r W ~ R b.b./ b.~ ;.c.j., , e b.b./ ! ! 7.b.^ b.$ = $ 3 > > E ~ ~ d %.! b.b.b.b.q.3.z. .",
"e 0 > b.b.b.b.b.e e r E ~ R b.b./ b.b.b.> N ~ T t > b.^ b.3.b.b.b.b.b.b.b.b.~ R } > b.b.= b.$ 5 % $ b.~ R @.e | b.b.b.~ 0.2.l.~ ",
", e < > b.b.b.b.b.> < u ~ E u e b.e w 5 b.b.A ] ) 0 b.< r b.b.> b.b.b.b.b.b.F } ) w b.b.b.b.b.= $ $ b.F V _ e <.b.b.b.v.k.g.. e ",
"b.r e b.b.b.b.~ E 4 b.N K <. .0 . r < 6 b.= = z.t.P I < < < 0 e e b.b.b.b.$ = h.h.N ~ b.b.b.< 3 = = $ = ;.z.) ~ b.b.b.v.c.z._ e ",
"e.> > r ) b.b.b.b.= = = l k.k.P E b.C ~ & b.i.z.z.u.S b., b.e e > b.b.b.b.b.w.z.z.j.h b.b.e ( w ; b.b.b.z.z.k./ b.b.b.b.c.z.b.b.",
"7.~ M , b.b.b.^ A $ = = 3.z.j.k.b.b.~ ^ b.j.9.z.b.b.> b.b.b.b.b.w ~ ~ b.b.b.5.j.b.b.> > b.> e e ) b.b.5.d.b.b.0 < b.b.b.b.b.> b.",
"e N b.b.b.b.b.^ b.$ = f ^ j.= $ r u P b.g.9.^ b.= = 4 > b.b.b.J z./ ~ ^ b./ / b.= $ 3 , b.> +. .g.=.~ 5.b.= = 1 e > b.b.b.e e 1 ",
"e e b.b.b.b.b.b.b.X b.5.0.i.= * 1 < < m j.h.9 w = f b.% b.b.b.z.z.b.b.b.b.b.b.- = s b.% b.b.b.b.+.M j.i.- ; s b.b.X b.b.b.> e e ",
"> b.b.b.b.b.b.b.b.b.) h.<.) = A b.= 7 B 5.^ b.t b.T = = X b.b.;.&.b.b.b.b.b.b.q 7 Q s = = b.b.b.< e b.<.b.7 n x = = b.b.b.e 0 > ",
"* b.b.b.b.b.b.b.b.e , b.<.n l ~ = = k ! ^ b.x Q ~ ~ s = b.b.= = s * b.b.b.b.b.G ! ~ A = = b.b.e ( , 3 > D R ~ D = = b.b.b.b.* + ",
"= b.! b.b.b.b.b.b.e.{ u 8 T / b.I = D ! b.b.b.d ^ z.i.;.U b.x = $ = b.b.b.b.b.b./ b.g.;.3.b.b.b.0 0 r 0 n ^ b.z.&.e.b.b.b.x = = ",
"= = Q ! b.b.b.b.b.z.l...4 N C v.g.w.z.i.b.b.b.> 0 k.f.i.v.a.^ = b.b.b.b.b.b.b.b.> e.g.1.c.Y b.b.b.6 > < > , $.i.w.v.z.b.b.b.$ s ",
"= = b.x b.b.b.b.b.v.z.3.< e , g.g.&.z.z.b.b.b.b.> b.b.S Q j.f.H # b.b.b.b.b.b.b.> b.b.A T g.b.b.~ ~ b.b.b.< b.b.b.K d.b.b.b.* V ",
"0 5 = = = b.b.b.b.b.v.7.! b.> b.b.D 5.7.b.b.b.b.b.= = s ^ a.z.e.$ b.b.b.b.b.b.b.b.= * = ~ ~ b.b.^ E u b.b.b.= = = G ^ b.b.b.# x ",
"r 3 * = = b.b.b.b.b.z.d.h u.b.= # = b.b.b.b.b.v.k.c = = b.b.b.b.X b.b.b.b.b.b.b.z.U = = b.b.b.b.b.q r b.b.c.#.= = b.b.b.b.= = b.",
"e r B b.b.b.b.b.b.b.v.b.b.c.z.U = = b.b.b.b.b.U n = b.b.b.b.b.#.f.b.b.b.b.b.b.a n c b.b.b.b.b.c.g.b.e , b.c n X b.b.b.b.b.b.b.= ",
"0 h.z.v.b.b.b.b.b.b.z.b.b.B s = b.b.b.b.b.b.b.= = 3   b.b.b.z.v.v.b.b.b.b.b.b.= $ ; . b.b.b.b.c.z.b.b.b.= = % > b.b.b.b.b.b.X = ",
"= b.z.b.b.b.b.b.b.b.z.b.b.= = 1 e b.b.b.b.b.b.b.b.e < b.b.b.b.z.b.b.b.b.b.b.b.b.b.e , b.b.b.b.b.5.~ b.b.b.b.w > b.b.b.b.b.b.= = ",
"= b.b.b.b.b.b.b.b.b.b.b.b.b.b.r e b.b.b.b.b.b.b.3.[ ` b.b.b.b.+.b.b.b.b.b.b.b.b.&.{ O.b.b.b.b.b./ ~ b.b.b.@.O.O.b.b.b.b.b.b.b.;.",
"= # = b.b.b.b.b.b.b.b.b.v.1.3.<.<.b.b.b.b.b.z.i.} P b.b.b.b.b.e , b.b.b.b.b.*.f.{ P b.b.b.b.b.b./ / b.b.z.} +.b.b.b.b.b.b.b.b.v.",
"* * = b.b.b.b.b.b.b.b.b.v.i.) b.b.b.b.b.b.b.{ b.(   b.b.b.b.< e b.b.b.b.b.b.2 b.e , b.b.b.b.b.b.b.b.b.b.m e e b.b.b.b.b.b.b.b.3.",
"= X = b.b.b.b.b.b.b.b.b.i b.e e b.b.b.b.b.b.> 0 > , b.b.b.b.b.. b.b.b.b.b.b.> > 0 < b.b.b.b.b.b.b.b.b.> 0 0 > b.b.b.b.b.b.b.c.z.",
"b.b.e b.b.b.b.b.b.b.b.b.< e b., b.b.b.b.b.b.b.0 b.b.b.b.b.b.b.b.b.b.b.b.b.b.. 0 b.b.b.b.b.b.b.b.b.b.b.b.b.k b.b.b.b.b.b.b.b.*.k.",
"b.8 e b.b.b.b.b.b.b.b.b.b.b.A b.b.b.b.b.b.b.b.b.~ b.b.b.b.b.b.b.b.b.b.b.b.b.b.b.~ d b.b.b.b.b.b.b.b.b.b.b.R ! b.b.b.b.b.b.b.b.b.",
"i.b.< e b.b.b.b.b.b.b.b.b.0 ~ ^ b.b.b.b.b.b.b.e b.a.b.b.b.b.b.b.b.b.b.b.b.b.b.e l 7.b.b.b.b.b.b.b.b.b.b.e y %.b.b.b.b.b.b.b.b.R ",
"c.b.b.b.b.b.b.b.b.b.b.b.b.e b.u.b.b.b.b.b.b.b.> b.z.b.b.b.b.b.b.b.b.b.b.b.b.b., b.l.b.b.b.b.b.b.b.b.b.b.< b.j.c.b.b.b.b.b.b.^ G ",
"b.~ b.b.b.b.b.b.b.b.b.b.b.< b.z.b.b.b.b.b.b.b.b.b.j.b.b.b.b.b.b.b.b.b.b.b.b.b.b.b.g.b.b.b.b.b.b.b.b.b.b.b.b.d.b.b.b.b.b.b.b.b.$ ",
"j.0.b.b.b.b.b.b.b.b.b.b.b.b.b.g.b.b.b.b.b.b.b.b./ b.b.b.b.b.b.b.b.b.b.b.b.b.b.b.^ ^ b.b.b.b.b.b.b.b.b.b.b.b.~ b.b.b.b.b.b.b.b.= ",
"z.b.b.b.b.b.b.b.b.b.b.b.b.b./ h b.b.b.b.b.b.b.b.^ b.b.b.b.b.b.b.b.b.b.b.b.b.b.b.b.b.b.b.b.b.b.b.b.b.b.b.b.b.b.b.b.b.b.b.b.b.b.b."
};
