/* XPM */
static char *fuzzy_wall011758717238[] = {
/* columns rows colors chars-per-pixel */
"64 64 224 2 ",
"   c #7D7A4C",
".  c #995C2F",
"X  c #995C31",
"o  c #935E3C",
"O  c #9B5F3C",
"+  c #965C31",
"@  c #8F562C",
"#  c #A45B3E",
"$  c #9D6237",
"%  c #94603D",
"&  c #9E633D",
"*  c #A1633D",
"=  c #956342",
"-  c #9C6641",
";  c #9F6840",
":  c #9D6A4B",
">  c #847E4A",
",  c #827E51",
"<  c #A36B45",
"1  c #A96F47",
"2  c #A26B49",
"3  c #AA6E48",
"4  c #A16540",
"5  c #AB7147",
"6  c #AB714E",
"7  c #AF784B",
"8  c #B2754B",
"9  c #B9724D",
"0  c #B6794D",
"q  c #B87A4F",
"w  c #AC7250",
"e  c #AE7A5B",
"r  c #B37751",
"t  c #B57956",
"y  c #BA7B53",
"u  c #B37B5B",
"i  c #BE7F5A",
"p  c #BC7651",
"a  c #B66F4C",
"s  c #619C1A",
"d  c #528E25",
"f  c #5E993C",
"g  c #4F8A31",
"h  c #619B28",
"j  c #659B39",
"k  c #788937",
"l  c #69A836",
"z  c #7AAD3B",
"x  c #73AA39",
"c  c #7AB439",
"v  c #6EAB2F",
"b  c #5C8B5D",
"n  c #699C49",
"m  c #6D9C5D",
"M  c #719E5C",
"N  c #77914A",
"B  c #6DA743",
"V  c #7BAC43",
"C  c #7CAC4C",
"Z  c #74AA48",
"A  c #7AB544",
"S  c #7ABA45",
"D  c #7AB74A",
"F  c #6FA159",
"G  c #78A858",
"H  c #7CB853",
"J  c #6E9D6B",
"K  c #6D9C66",
"L  c #739E65",
"P  c #739F6B",
"I  c #74A162",
"U  c #7CA564",
"Y  c #75A16B",
"T  c #7BA46B",
"R  c #7BA96B",
"E  c #7BAA75",
"W  c #83843C",
"Q  c #8B8C3D",
"!  c #839437",
"~  c #95953C",
"^  c #83B73D",
"/  c #86C13D",
"(  c #8C834B",
")  c #8A8A43",
"_  c #978B47",
"`  c #8E9046",
"'  c #919244",
"]  c #93934B",
"[  c #9A954C",
"{  c #9B9A4C",
"}  c #9D9446",
"|  c #878952",
" . c #9B9951",
".. c #A19E49",
"X. c #A0934C",
"o. c #BF805B",
"O. c #B58256",
"+. c #A49751",
"@. c #84B948",
"#. c #8CAE5E",
"$. c #84AD58",
"%. c #86BA55",
"&. c #94B25E",
"*. c #9AB65D",
"=. c #9DB95C",
"-. c #98BB58",
";. c #89A54D",
":. c #A8A65A",
">. c #A4BD5B",
",. c #A8BE5C",
"<. c #A4BD56",
"1. c #B78061",
"2. c #BE8464",
"3. c #A89D76",
"4. c #83A765",
"5. c #84AA64",
"6. c #8CAD63",
"7. c #82A66C",
"8. c #83AA6B",
"9. c #8AAB6B",
"0. c #8EB163",
"q. c #8DB26C",
"w. c #93B261",
"e. c #9BB663",
"r. c #9CBA62",
"t. c #92B46B",
"y. c #95BA67",
"u. c #85AB72",
"i. c #89AF76",
"p. c #8FB16D",
"a. c #A3BC61",
"s. c #A8BE61",
"d. c #A2BC72",
"f. c #B1AE7C",
"g. c #C2845D",
"h. c #C49557",
"j. c #D9B057",
"k. c #C18663",
"l. c #C58966",
"z. c #C98A65",
"x. c #C58969",
"c. c #C98E6D",
"v. c #D1AC6D",
"b. c #88C14A",
"n. c #83C353",
"m. c #91C44F",
"M. c #AEC554",
"N. c #ABC35B",
"B. c #A8C45C",
"V. c #B1C756",
"C. c #B1C957",
"Z. c #B3C65D",
"A. c #B4C95B",
"S. c #B8CB5E",
"D. c #B7D15D",
"F. c #AAC363",
"G. c #A6C564",
"H. c #B4C760",
"J. c #B6CD63",
"K. c #B9CD64",
"L. c #B7CC69",
"P. c #BAD266",
"I. c #BCD26B",
"U. c #B8D46A",
"Y. c #BACB75",
"T. c #BED678",
"R. c #C0D66E",
"E. c #C3D672",
"W. c #C2DA73",
"Q. c #C2D87A",
"!. c #C7CC70",
"~. c #C9E178",
"^. c #95B786",
"/. c #ACA496",
"(. c #B4A595",
"). c #AEB3AF",
"_. c #B6B5AD",
"`. c #BACB87",
"'. c #BED985",
"]. c #BACB97",
"[. c #A5C482",
"{. c #BDCCA3",
"}. c #C3DC8E",
"|. c #C5D583",
" X c #C4DD93",
".X c #C6DC9B",
"XX c #FCED92",
"oX c #D8DBB5",
"OX c #CCDCA8",
"+X c #C7E1A9",
"@X c #D6E7B7",
"#X c #D4E7B2",
"$X c #F6D58F",
"%X c #BAC7C9",
"&X c #BCC9C8",
"*X c #BCC6C7",
"=X c #C4CAC7",
"-X c #CBCBC6",
";X c #C2C9C8",
":X c #CBE7CA",
">X c #C8E4C5",
",X c #CAE8D7",
"<X c #D1E9D8",
"1X c #ECE7C6",
"2X c #F3EDD4",
"3X c #D4E7E6",
"4X c #CFEDF5",
"5X c #C7EAF9",
"6X c #CAEDFB",
"7X c #D2EDF6",
"8X c #DBEEF5",
"9X c #D2EFFA",
"0X c #DAEFF9",
"qX c #CDF6FF",
"wX c #D2F1FB",
"eX c #DCF2FA",
"rX c #D7FCFF",
"tX c #DBFCFF",
"yX c #DEF0F3",
"uX c #CAE4EB",
"iX c #E2F2F9",
"pX c #E3FBFF",
"aX c #ECFFFF",
"sX c #E2F1F6",
/* pixels */
"6X6X6X5X5X6X5X6X5X6X5X5XqX5X5X5X6X6X6X6X5X6X6X5X6X6X5X5X6X6X5X6X6X6X6X6X6X6X6X9X6X6X6X6XqX7X9X9X0X9X0X0X0X0XeXeXiXeX0XeXeXeXiXeX",
"6X5X5X6X5X6X5X6X5X6X5X5X5X5X5XqX5X6X5X6X5X6X5X6X5X5X6X6X6X6X6X6X6X5X6X6X6X9X9X6X9X6X9X6X9X9X0X0X0X0XeXeXiX0XeXiXiXiXeXeXeXiXiXiX",
"6X5X5X6X6X6X5X6X6X6X5X5X6X6X5X6X6X6X6X6X5X5X6X6X6X6X5X6X6X6X6X6X6X6XqX6X6X9XwX6X9X6X4X9X7X8X0X0XeX0XeXeXiXeXiXiXiXiXiXiXiXiXiXiX",
"6X5X5X6X6X6X5X5X5X5X5XqX6X6X6X6X6X6X6X6X6XqX6X6X6X6XqX6X6X6X9X6X6X6X6X9X6X6XqX9X6X9X9X0X0X0X0X0X0XeX0XeX0XeXiXeXiXiXiXiXiXiXiXiX",
"6X5X6X6X6X6X6X6X5X6X5X6X6X6XqX4X9X6X9X6X6X6XqX6X6X6X6X9XwX6X9X6X9X6X6XqX9X6X9X9XqX7X0X0XsX0X0X0X0X0X0X0XiXeXiXiXiXiXiXiXiXiXiXiX",
"6X6X6X6XwX9XwX6X6X9X9X9X6XqXwX6X9X9X9X9X7X7X7XwXwX6X9XwX9X9X6X9X6X6X9X6X6X9X6X6X6X6X9X0X0X0X9X9X0X0X0XeXeXeXiXiXiXiXiXiXeXiXiXiX",
"qX9X0XeXeXeXeX0XeXeX0XeXeXeX0XeXpXpXpXeXeXtXtXpXeXrXrXeXtXrXwXrXrXwXrXwXqXrXwXwXwXrXwXwXtXeXtXeXeX0X0X0X0XeXiXeXiX0X0X0X0XeXiXiX",
"eXeXeXeXeXeXeXeXeXeXiXiXiXeXeX3X-X-X-X-X-X-X-X-X=X=X=X=X;X*X&X&X&X&X%X%X%X%X%X&X%X%X%X%X%X%X%X&XuX9X9X0X0X0X9X0X0X0X9X9X9X9X9X0X",
"eXiXiXeXeXeXeXiXeXiXiXiXiXsXaX(.@ < & ; ; ; & ; ; ; ; ; & & < - < & * ; - * ; ; ; & < & * ; 2 + _.wX5XqXqX6X6X6X6X9X6X6X6X6X6X6X",
"eXyXeXiXiXiXiXeXeXiXiXiXiXsXaX(.X q 0 q q q q q 0 q q 0 q q 0 y 0 q q q q q q q q q 0 q q 8 q $ ).qX5X5X5X6X5X5X5X6X6X5X6X5X6X6X",
"eXeXeXiXiXeXiXiXiXiXiXiXiXsXaX(.+ y 1 - - ; ; & ; - & ; ; ; 4 ; - ; ; ; - - - < ; - ; ; - 1 8 $ ).qX5X5X6X5X5XqX6X6X6X5X6X5X6X5X",
"eXeXeXeXiXiXeXiXeXiXiXiXiXsXaX(.+ y - & < 2 2 < < < < < 2 2 < < 2 ; < < < < < < < < < 2 - - y $ ).qX5X6X5X5X5X5X6X5X5X6X5X5X6X5X",
"eXeXeXeXiXiXiXeXeXeXiXiXsXsXpX(.. y ; 5 q q 8 0 8 0 0 8 8 q 8 8 0 8 8 0 8 0 8 8 8 8 8 q 7 - q $ ).qX5X6X5X5X5X5X5X6X5X5X6X6X5X6X",
"eXeXeXeXiXiXiXiXeXiXiXiXiXsXpX(.. y - 5 8 8 8 8 8 8 8 8 8 8 8 8 8 8 8 0 8 8 8 8 0 8 8 0 3 - y $ ).qX5X5X5X5XqX5X5X5X5XqX6X5X5X6X",
"iXiXiXiXiXiXiXeXiXsXiXiXeX0XpX(.. y - 3 8 8 6 2 < < < < < 3 8 8 8 8 8 2 < < < < < 2 8 8 1 & y $ ).qX5X5X5XqX5X5XqX5X5X5X5X6X6X6X",
"iXiXiXiXiXiXiXiXeXiXiXiXeX8XpX(.. y - 3 8 8 i - : : : 2 = w y 8 8 8 i = : : : : = r y 8 1 - q $ ).qX5X6X5X6X6X6X6X6X6X6X6X6X6X6X",
"iXiXiXeXiXeXeXeXeXeXiXeXeX8XpX(.X y - 1 8 8 o.6 o.k.2.k.t t y 8 8 8 u 6 k.g.k.l.t t y 8 5 - y $ ).qX5X6X6X9X5X6X6X9X6X6XwX6XwXwX",
"eXeXeXeXeXeXeXeXeXeX0XeX9X7XtX/.. y - 1 8 8 o.6 8 8 8 7 3 t y 3 8 r i 6 8 3 7 8 6 t y 8 5 - q $ ).qX5XqX6XqX6X6X6X6X4XwX9X6X4XwX",
"wX7XeX7XwXwXqX7X7X9XwX9X9X4XrX/.. y ; 1 8 7 o.w r 8 8 8 3 t y 7 8 8 i 6 8 8 0 8 6 t y 8 1 - q $ ).qX5X6X6X6X6X6XwX9XwXwXwX6XeXeX",
"wXwX4XqX4XwX7XwXqX9XwXwXwX4XrX/.. y - 5 8 7 o.6 r 8 8 8 w u y 7 8 8 i 6 8 8 8 8 6 t y 8 5 - q $ ).rX6X4X9X6X9X9X9X0X0XeXeXeXeXeX",
"wX6XwXwXqXqX7X9X9XwX9X9X9XqXrX/.. y - 1 8 8 i w 8 8 8 8 w t y 3 8 8 i 6 6 8 8 8 w t y 8 5 - 0 $ _.rX7X9X0X0X0X0XeXeXeXiX0XeXeXeX",
"wXwX9XwX9XwX9X9XwXwXwXwX9X7XrX/.. y - 1 8 8 i w r 8 8 8 6 r y 8 8 8 i 6 8 8 8 8 6 t y 8 5 - y $ _.tX8X0XeX0XeXeXiXiXiXiXeX0XeXeX",
"wXwXwX6X9XqXwXwXwXwXwXwXwX7XrX/.. y - 1 8 8 i w r 8 8 8 6 r y 7 8 8 i 6 r 8 8 8 w t y 8 1 - 0 $ _.aXsXsXeXeXeXiXiXiXeXeXeXeXeXiX",
"wX9X9X6X9X9XwX9X6XwX9X9X9X4XrX/.. y - 1 8 8 i w r 8 8 8 w t p 7 8 8 i 6 8 8 8 8 w t y 8 5 - y $ _.aXyXyXeXeX0XeXeXeXeX0X7X0X0XeX",
"9X6XwXwX4X7X,X<X:X4X:X+X:X X#X3.X y & 1 8 8 i 6 r 8 8 8 6 r i 8 8 8 i 6 w 8 8 8 w t y 8 3 - y $ f.:X'.@X<X7X3X<X<X3X6X6X6X9X9X9X",
"wX:X,XwX,X+X X}.~. X~.W.Q.E.~.+.& q - 1 8 8 i w r 8 8 8 w t y 8 8 8 i 6 r 8 8 8 r t y 8 1 - q & :.T.U.}.Q..X.X}. X+XuX>X6X6X,X,X",
"+X.X'. XQ.W.T.W.W.W.W.W.E.E.~.+.& q - 1 8 8 g.2 % o o o = r y 7 8 8 i 2 o o o o = t y 8 5 - q & :.W.U.U.U.U.I.R.W.T.T.'.+X.X].T.",
"U.I.U.U.T.I.W.E.W.W.W.W.E.R.W...% q - 1 8 8 o.l.2.2.2.2.2.x.y 8 8 8 k.k.2.2.2.2.2.l.y 8 5 - q & :.~.I.U.U.U.I.I.I.P.J.P.J.P.U.U.",
"U.J.T.Q.T.I.E.E.E.W.E.E.E.E.~.+.O q - 1 8 8 r g.g.g.g.g.g.o.8 8 8 7 y g.k.g.g.g.g.y 8 8 5 ; O.& :.W.U.U.P.U.L.P.I.I.I.I.I.R.E.E.",
"I.I.I.T.R.I.K.I.R.R.U.U.U.L.U.X.O q - 1 8 8 8 8 8 7 5 7 8 8 8 8 8 a 7 8 8 7 3 8 8 7 8 8 1 & 0 & ..D.C.A.J.P.J.S.J.P.J.P.I.R.R.!.",
"K.L.K.L.K.J.H.J.K.K.K.K.J.J.U.[ & q & 1 8 8 7 < < < < < < 3 8 8 8 8 8 < < < < < 2 5 8 8 1 - q & ..D.C.C.Z.A.A.A.A.Z.H.A.A.S.K.S.",
"J.K.L.J.J.J.J.A.A.A.A.A.Z.Z.P.} O 0 ; 1 0 8 i : = : : : % w y 8 8 8 i = : : : : = r y 7 5 - q & ..A.A.C.C.C.A.C.C.A.Z.V.C.C.C.C.",
"S.S.K.K.H.S.K.!.OX!.A.S.S.V.S.} O q & 1 8 8 i w 2.2.k.x.u t y 8 8 8 i w 2.k.k.k.u r y 8 3 - q & ..C.C.C.V.C.V.M.V.M.M.M.V.M.M.M.",
"!.Z.S.K.A.S.C.|.1X!.,.A.S.V.S.} O q - 1 8 8 i w 8 a 7 8 3 t y 5 8 8 i 6 6 3 7 8 w t y 8 3 - y & ..D.C.C.C.C.C.M.M.M.M.M.M.M.M.M.",
"K.A.A.H.S.Z.A.K.!.A.S.A.V.S.D.X.O y - 3 8 8 g.w r 8 8 8 6 r y 8 8 8 i 6 8 8 8 8 6 y y 8 5 - q & ..A.M.C.M.C.C.M.M.M.M.M.M.M.M.M.",
"Z.Z.Z.V.!.oX!.V.V.V.Z.Z.Z.S.P.X.& q - 8 $Xv.t w r 8 8 8 w t y 8 8 8 i 3 r 8 8 8 w t y 8 1 - q * ..C.M.C.C.M.C.M.V.M.M.M.M.M.M.M.",
"Z.Z.H.N.|.1X|.,.S.Z.S.Z.H.H.K.} O q & O.XXj.y w 8 8 8 8 w r i 8 6 8 i w 8 8 8 8 6 t y 8 5 - q - ..C.M.M.C.M.M.C.C.A.Y.N.M.M.M.M.",
",.,.,.,.s.|.s.,.,.Z.Z.,.Z.Z.J._ O q - 7 XXv.p w r 8 8 8 w t y 8 8 8 i 6 r 8 8 8 w t y 8 5 - q & ..D.M.A.C.N.M.M.C.oXOXN.M.M.M.M.",
">.>.,.>.=.-.>.>.>.,.s.,.,.,.H._ & q = 0 !.v.y w 8 8 8 8 6 r y 8 8 8 i 6 8 8 8 8 6 t y 8 5 - q & ..J.N.N.,.,.,.<.Q.1X.X<.,.,.-.<.",
"*.=.=.=.*.=.a.>.a.a.s.,.>.>.G._ & q & 5 j.h.t w r 8 8 8 w r y 3 8 8 i 3 r 8 8 8 6 t y 8 5 - y & { F.,.<.,.<.<.,.s.s.F.<.>.>.,.<.",
"*.*.*.*.*.r.*.*.=.e.e.a.e.a.G.( & 0 - 1 8 7 i 6 8 8 8 8 w r y 7 8 8 o.6 8 8 8 8 w t y 8 5 - 0 & [ F.>.>.>.>.>.,.>.>.>.>.>.>.>.>.",
"-.*.*.*.w.w.w.w.e.e.e.a.e.a.a._ & q - 1 8 8 i w r 8 8 8 w t p 7 8 8 i w 8 8 8 8 w t y 8 5 - q &  .F.a.s.s.s.s.s.s.>.>.>.>.s.>.=.",
"w.w.&.&.&.&.w.e.w.&.e.w.w.e.e.( & q - 5 8 8 i 2 % o o o - r i 8 8 8 i 2 = o o o - t y 8 1 - y &  .F.>.a.s.>.>.>.>.=.=.>.>.>.a.=.",
"w.6.0.6.#.6.0.w.w.w.*.e.a.e.B._ O q & 5 8 8 g.x.2.2.k.k.2.x.y 8 8 8 k.k.2.2.2.2.2.x.y 8 5 - q & [ F.>.>.s.>.=.>.>.>.<.>.B.,.,.<.",
"w.w.&.w.0.w.w.0.&.w.w.w.w.w.y.( & q - 1 8 8 y g.g.g.g.g.g.i 8 8 8 8 y g.g.g.g.g.g.g.8 8 7 - q * [ G.B.<.>.>.,.>.,.<.,.<.>.>.=.*.",
"r.w.w.w.#.w.&.d.].d.w.w.0.#.0.( & q - 1 8 8 7 8 8 8 8 5 8 8 8 8 8 8 8 8 8 5 8 8 8 8 8 8 1 - q - [ B.,.B.,.>.>.<.=.=.=.>.=.<.>.#.",
"&.w.#.w.0.0.$.].2X].#.w.w.*.r.` O q - 3 8 8 3 1 2 1 1 2 < 3 8 8 8 8 6 2 1 1 < 1 < 3 8 8 1 - q & [ B.=.>.*.*.=.=.-.=.=.=.*.*.&.&.",
"0.&.#.e.w.w.#.[.].t.6.6.w.w.e.( * q - 3 8 8 i - = = - - o w y 7 8 8 i - = = = - o w y 8 1 - q * ] e.&.&.w.w.w.&.#.#.#.&.#.w.#.&.",
"0.0.6.6.6.6.w.w.#.w.w.w.e.e.e.( & q & 1 8 8 o.6 2.c.x.c.t u y 8 6 8 i 6 x.c.c.c.u t y 8 5 ; O.* | q.6.6.0.#.#.#.w.&.&.*.&.*.&.&.",
"0.6.6.6.6.5.5.5.8.6.0.w.p.6.t.( & q - 1 8 8 i w r 8 8 8 w t y 8 8 8 i 6 8 8 8 8 6 t y 8 5 & q & ] y.e.&.r.f.e.w.#.6.*.&.&.&.w.6.",
"8.5.8.7.7.8.8.L P T 4.7.9.4.p.( * q - 1 8 8 o.w r 8 8 8 6 r y 8 8 8 i w w 8 8 8 6 t y 8 5 - q * | 6.6.e.OX].#.4.5.5.6.#.5.5.4.U ",
"Y Y Y Y Y Y L Y 7.7.7.7.9.9.i.| & 0 - 5 8 8 o.6 r 8 8 8 6 r y 8 8 8 i w 8 8 8 8 w t y 8 5 - q * N 5.6.p.].p.6.9.9.4.T T 7.I ^.^.",
"L Y T Y Y J J T T T 7.7.u.7.u.> & 0 & 1 8 7 i w r 8 7 8 6 t y 8 8 0 i 6 w 8 8 0 6 t y 8 5 - 0 & | i.9.p.7.7.7.T T R T T L ^.oXoX",
"Y Y J Y J J Y T P T P 7.7.7.i.> * q - 5 8 7 i w 8 8 8 8 6 t y 5 8 8 i 6 8 8 8 8 w t y 8 5 - y & | p.9.7.7.7.7.T T R T T L ^.1X.X",
"K J J K J J J Y P Y P P 7.7.i., & q - 3 8 8 i w r 8 8 8 6 t y 7 8 8 i 6 r 8 8 8 w t y 8 5 - q * | u.7.u.7.T T T T T T U T T ^.i.",
"K J J J J J J F P J J 4.4.P u., * 0 - 3 8 8 i w r 8 8 8 6 t y 7 8 7 i 6 8 8 8 8 6 t y 8 5 - q & | T T T 7.T 7.P Y Y 8.T Y T M L ",
"M M F I J J J K V K J $.$.P T , * 0 & 1 8 8 i w r 8 8 8 6 t y 5 8 8 i 6 w 8 8 8 w t y 8 3 - q * | 8.7.u.T G T T Y 8.9.Y Y I Z I ",
"m G V Z Y I F J ^ p.T c A j n   * y - 1 8 8 i w t 8 8 8 w y y 7 8 8 i 6 r 8 8 8 w t y 8 5 - q 4 k T 7.T L $.5.T T G T K b M B I ",
"Z Z A x F R Z [.-.G.%.v c s n   * q - 1 8 8 i 2 = o o o - t y 8 8 8 i 2 - = % % - u y 8 1 - 0 4 ! C Z 5.n C %.J G Z P M M F x z ",
"Z z H v d H H H @.0.%.A v h B k & q - 1 0 8 g.o.e u u u e 2.y 8 8 8 k.2.u u i 2.i l.y 8 5 - q * ! @.C G j C c G @.z G F U ;.^ z ",
";.Z %.x f B n.l A R n.S ^ c c W * q - 1 8 a y z.z.z.z.z.z.g.q 8 8 8 y z.x.l.z.l.z.g.8 8 5 & y * ! m.G C h c S @.^ c c %.n v ^ ^ ",
"C x Z j n B H l A n.@.n./ ^ S ) * y - 5 8 7 8 7 5 5 5 8 5 5 8 8 7 8 7 8 7 7 5 5 3 7 8 8 5 - q 4 ! m.$.^ l A H @.@.B S H d v @.c ",
"C B C l g l l l x S S n./ b.S k # p O 3 8 a 9 8 a a 9 9 a a 9 a a a 8 9 a 8 9 a a a 9 9 3 - 9 4 k A b.c D n.H %.%.l D G j j A z ",
"h j Z Z g l l l c l v n.^ c b.;.W ` [ +.` ' ' { ' { Q ' ` ) W [ [ [ ~ ~ [ { { [ ~ ' ' ) ~ W [ ` j l m.b.Z S S S D v l B j f V x "
};
