/* XPM */
static char *_756381257846[] = {
/* columns rows colors chars-per-pixel */
"64 64 213 2 ",
"   c #609B1D",
".  c #4C852F",
"X  c #558E28",
"o  c #599436",
"O  c #629A24",
"+  c #649C2D",
"@  c #609636",
"#  c #649E3B",
"$  c #699C38",
"%  c #69A72A",
"&  c #6BA32C",
"*  c #72AA2D",
"=  c #65A332",
"-  c #6EA333",
";  c #67A836",
":  c #6CA933",
">  c #66A43A",
",  c #6CA33A",
"<  c #6CAB3B",
"1  c #74AC33",
"2  c #74A43B",
"3  c #74AB3C",
"4  c #7CAD3C",
"5  c #6EB135",
"6  c #6FB13A",
"7  c #7BB737",
"8  c #7DB435",
"9  c #7CB935",
"0  c #76B33D",
"q  c #7BB43D",
"w  c #5B8B5A",
"e  c #609242",
"r  c #6A9C4D",
"t  c #729F4A",
"y  c #6D9B59",
"u  c #729E5E",
"i  c #6BA242",
"p  c #6AA147",
"a  c #6FAE43",
"s  c #74A545",
"d  c #74AB44",
"f  c #7BAD43",
"g  c #72A34B",
"h  c #78A748",
"j  c #74AD4B",
"k  c #7BAC4D",
"l  c #6FB040",
"z  c #74B244",
"x  c #7CB543",
"c  c #7ABA46",
"v  c #74B24B",
"b  c #7BB549",
"n  c #7DBA4B",
"m  c #77A554",
"M  c #7AA554",
"N  c #7DAB53",
"B  c #74A35C",
"V  c #7BA45A",
"C  c #7CAB5D",
"Z  c #79B451",
"A  c #7DBD54",
"S  c #6E9D65",
"D  c #6E9E6A",
"F  c #729D66",
"G  c #729F69",
"H  c #74A163",
"J  c #7CA364",
"K  c #7EAC67",
"L  c #75A16A",
"P  c #7BA46B",
"I  c #7FC052",
"U  c #82B53D",
"Y  c #87BF39",
"T  c #84BB3C",
"R  c #87C33C",
"E  c #8AC33B",
"W  c #82AF4B",
"Q  c #81B543",
"!  c #84BB43",
"~  c #88BA43",
"^  c #84B44B",
"/  c #89B64A",
"(  c #84BC4C",
")  c #8ABC49",
"_  c #92BF4E",
"`  c #84AC54",
"'  c #81A75A",
"]  c #82AA5B",
"[  c #8BAD5E",
"{  c #84B352",
"}  c #83BB54",
"|  c #8ABC54",
" . c #87B758",
".. c #8BB15C",
"X. c #92BB54",
"o. c #93B25E",
"O. c #9AB65D",
"+. c #9DB95C",
"@. c #A3BC57",
"#. c #A4BD5C",
"$. c #A8BF5D",
"%. c #82A665",
"&. c #85AA64",
"*. c #8CAD64",
"=. c #83A66B",
"-. c #86A96B",
";. c #8CAB6A",
":. c #91AF65",
">. c #91AE6A",
",. c #8FB063",
"<. c #94B263",
"1. c #9BB663",
"2. c #93BD67",
"3. c #9FB863",
"4. c #94B26A",
"5. c #9CB668",
"6. c #9CBA6E",
"7. c #84A971",
"8. c #85A972",
"9. c #8CB07C",
"0. c #92B173",
"q. c #A2BB62",
"w. c #A9BF62",
"e. c #A1B868",
"r. c #86C044",
"t. c #89C14A",
"y. c #81C255",
"u. c #8AC357",
"i. c #91C655",
"p. c #AEC554",
"a. c #A7C15D",
"s. c #ABC15D",
"d. c #AFCA5D",
"f. c #B1C756",
"g. c #B1C857",
"h. c #B3C65C",
"j. c #B5C95B",
"k. c #B8CA5F",
"l. c #8DC064",
"z. c #A4C363",
"x. c #ADC262",
"c. c #B2C562",
"v. c #B6CC62",
"b. c #B9CD65",
"n. c #B2C46A",
"m. c #BACE6A",
"M. c #B7D066",
"N. c #B9D067",
"B. c #B7D069",
"V. c #BCD26C",
"C. c #BBCC74",
"Z. c #B4C779",
"A. c #BACC7D",
"S. c #BED571",
"D. c #BFD975",
"F. c #BCD47B",
"G. c #BED97B",
"H. c #C0D46E",
"J. c #C0CF71",
"K. c #C2D673",
"L. c #C2D975",
"P. c #C2D37B",
"I. c #C3DA7D",
"U. c #99B887",
"Y. c #ADC488",
"T. c #B5CD88",
"R. c #BCCC8C",
"E. c #B5CB97",
"W. c #BBCBA3",
"Q. c #BED0A2",
"!. c #C0CF85",
"~. c #C3DA83",
"^. c #C6D388",
"/. c #C3DB8C",
"(. c #C8D696",
"). c #C4DC94",
"_. c #C4DE9C",
"`. c #C4DEA2",
"'. c #CBDCA2",
"]. c #D3DAA7",
"[. c #D3DDAA",
"{. c #C2DEB2",
"}. c #D2D9B5",
"|. c #E5DFB0",
" X c #C8E0A4",
".X c #C5E0AA",
"XX c #C9E2AD",
"oX c #CBE4BA",
"OX c #DCE1B4",
"+X c #E5E2B9",
"@X c #C6E3C6",
"#X c #CBE6C3",
"$X c #CAE7CA",
"%X c #D5E4C8",
"&X c #CAE7D0",
"*X c #CDE9D4",
"=X c #CCE9DA",
"-X c #D6EAD5",
";X c #E6E5C5",
":X c #C6E8E5",
">X c #CEECE5",
",X c #CDECEE",
"<X c #D8EDE8",
"1X c #CCEDF4",
"2X c #CAEDFB",
"3X c #D1EEF4",
"4X c #D2EFFA",
"5X c #DAEFF9",
"6X c #DEF0F5",
"7X c #D2F0FA",
"8X c #DCF1F9",
"9X c #E2F2F9",
"0X c #E9F4F8",
/* pixels */
"2X2X2X2X2X2X2X2X2X2X2X2X2X2X2X2X2X2X2X2X2X2X2X2X2X2X2X2X2X2X2X2X2X2X2X2X2X2X2X7X2X2X2X2X1X4X3X4X5X5X5X4X5X5X8X8X8X9X8X8X8X8X9X8X",
"2X2X2X2X2X2X2X2X2X2X2X2X2X2X2X2X2X2X2X2X2X2X2X2X2X2X2X2X2X2X2X2X2X2X2X2X2X7X7X2X4X2X2X4X4X4X5X5X5X5X5X5X9X8X9X9X9X9X9X8X8X8X9X9X",
"2X2X2X2X2X2X2X2X2X2X2X2X2X2X2X2X2X2X2X2X2X2X2X2X2X2X2X2X2X2X2X2X2X2X2X2X2X7X2X7X2X4X1X4X4X5X5X5X5X5X9X5X9X8X9X9X9X9X9X8X9X8X9X0X",
"2X2X2X2X2X2X2X2X2X2X2X2X2X2X2X2X2X2X2X2X2X2X2X2X2X2X2X2X1X7X2X7X2X2X2X2X2X2X7X2X4X4X4X5X5X5X5X5X5X5X9X5X5X8X8X9X9X9X9X8X8X9X9X0X",
"2X2X2X2X2X2X2X2X2X2X2X2X2X2X2X2X2X4X2X4X2X2X4X2X2X2X4X2X3X7X2X2X2X7X2X2X7X2X7X7X2X4X5X5X5X3X2X2X5X5X5X5X8X9X8X9X9X9X9X9X9X8X9X9X",
"2X2X4X2X4X4X7X2X2X4X4X4X2X2X2X2X7X4X7X7X4X4X4X4X2X2X4X4X4X7X7X7X7X2X7X7X2X7X7X2X4X4X4X5X5X4X2X2X5X5X5X8X8X8X9X9X9X9X9X8X8X9X9X0X",
"2X4X4X5X8X8X7X8X5X8X8X8X6X7X2X2X8X9X8X8X5X5X9X5X2X4X5X4X7X7X7X2X7X2X7X2X2X7X2X2X4X2X4X4X4X5X2X2X5X5X5X5X5X9X8X8X8X8X5X5X5X8X9X8X",
"2X5X5X9X8X8X8X9X8X8X8X9X9X8X4X3X9X0X9X9X9X9X9X9X4X4X5X5X8X2X4X7X7X7X2X7X7X2X2X2X2X2X2X2X2X2X2X2X4X5X4X5X5X4X5X5X5X5X4X4X4X5X4X4X",
"8X9X8X9X8X9X9X8X8X9X9X9X9X9X9X9X0X0X0X9X9X9X0X9X9X8X5X8X8X7X5X4X7X3X7X8X5X4X4X2X2X2X2X2X2X:X2X2X2X2X2X2X2X2X2X2X4X2X2X2X2X2X2X2X",
"8X8X8X9X9X8X9X8X9X8X9X9X9X9X0X0X0X0X9X9X9X9X9X9X9X9X8X8X8X8X8X9X9X8X8X8X5X4X4X2X2X2X2X2X2X2X2X:X:X2X2X2X2X2X2X2X2X2X2X2X2X2X2X2X",
"8X8X8X9X8X9X9X9X9X9X9X0X0X9X0X0X0X0X9X9X9X9X9X9X9X9X9X9X8X9X9X9X9X9X8X8X5X5X2X2X2X2X2X2X:X2X:X2X2X2X:X2X2X2X2X2X2X2X2X2X2X2X2X2X",
"7X8X8X8X8X9X9X8X8X9X9X9X9X9X8X9X9X0X0X9X9X9X0X9X9X9X9X9X4X8X9X9X9X8X5X4X3X2X2X2X2X2X2X2X2X:X2X2X2X2X2X2X2X:X:X2X2X2X2X2X2X2X2X2X",
"8X8X8X9X9X9X9X9X8X9X8X9X9X8X8X9X9X9X9X9X9X9X9X9X9X5X4X4X2X7X2X4X4X4X2X2X2X2X2X2X2X2X2X2X2X2X2X2X:X:X2X2X2X2X2X:X2X2X2X2X2X2X2X2X",
"9X8X8X9X9X9X8X8X8X9X9X9X8X8X8X8X8X8X8X8X5X5X5X9X8X4X2X2X2X2X2X2X2X2X2X2X2X2X2X2X2X2X2X2X2X2X:X:X:X2X2X2X2X:X:X2X2X2X2X2X2X2X2X2X",
"9X9X9X9X9X9X9X9X9X9X9X9X8X8X8X8X5X8X9X5X4X5X5X5X4X2X2X2X2X2X2X2X2X2X2X2X2X2X2X2X2X2X2X2X2X2X2X2X2X2X:X2X:X2X2X2X2X2X2X2X2X2X2X2X",
"9X0X9X9X9X9X9X8X8X9X9X9X8X8X8X9X8X5X9X5X4X4X4X2X2X2X2X4X2X2X2X2X2X2X2X2X2X2X2X2X2X2X2X2X2X2X2X2X2X:X:X2X:X2X2X2X2X2X2X2X2X2X2X2X",
"8X9X9X8X9X9X8X8X8X9X9X8X8X8X8X8X7X8X8X3X7X7X7X2X2X2X2X7X2X2X2X2X2X2X2X2X2X2X2X2X2X2X2X2X2X2X2X2X2X2X2X2X2X2X2X2X2X7X2X7X7X2X2X3X",
"8X8X8X8X8X7X8X8X7X8X8X8X7X7X7X7X7X7X7X7X7X7X2X2X7X2X7X2X7X7X7X2X2X7X2X2X2X4X2X2X2X2X2X2X2X2X2X2X2X:X2X2X2X7X2X2X7X2X4X2X2X7X7X7X",
"7X7X7X7X7X7X7X7X7X7X7X7X7X7X7X7X7X7X7X7X7X7X7X7X7X2X2X7X7X2X7X2X7X2X2X7X2X4X2X2X2X2X2X2X2X2X2X2X2X2X2X2X2X2X2X2X2X7X4X7X7X7X7X8X",
"7X7X7X7X7X7X7X7X2X7X7X7X7X7X7X7X7X7X7X7X2X2X7X7X7X2X7X7X2X7X7X7X7X7X2X7X2X2X2X2X2X2X2X2X2X2X2X2X2X2X2X2X4X7X3X4X3X8X8X8X8X8X8X8X",
"7X7X2X7X7X7X7X7X7X7X7X7X7X7X7X7X7X7X7X7X7X7X7X2X7X7X2X2X2X7X7X7X2X2X2X7X2X4X2X2X2X2X2X2X2X2X2X2X2X2X7X3X7X8X8X7X8X8X9X8X8X8X8X8X",
"7X7X7X7X7X7X7X7X7X7X7X7X7X7X7X7X7X7X7X7X7X2X7X7X2X7X7X7X7X7X2X7X7X7X7X2X2X2X2X4X2X2X2X2X8X4X5X5X2X2X8X8X8X8X8X9X8X9X9X9X8X8X8X8X",
"7X7X7X7X7X7X7X7X7X7X7X7X7X7X7X7X7X7X7X7X7X7X7X7X7X7X,X*X,X>X7X7X7X1X=X,X=X3X4X5X,X5X@X<X9X6X6X9X2X8X8X8X8X8X8X8X9X9X9X8X8X8X8X9X",
"7X2X2X7X7X2X7X7X7X7X7X1X7X7X3X7X1X7X>XoX1X1X1X=X>X=XoX/..X&X$X$X_. XQ..X_.$X*XXX`.'.^.%X<X-X<X<X=X7X6X6X8X8X8X8X8X8X6X8X7X7X8X8X",
"7X7X7X7X,X,X$X>X#X7X#X X#X). X%X_.)._.I..X/._.~.).~.I.K.P.F.S.S.D.V.D.V.D.V.V.D.S.H.L.~.~.G.~.)./..X_.oX*X6X=X-X*X<X1X2X2X4X2X4X",
"7X@X=X2X*XXX/.).I.~.I.L.L.L.L.L.L.L.L.K.K.K.K.K.L.K.K.K.K.D.L.L.D.D.D.S.V.D.V.S.S.V.S.S.D.L.K.D.D.D.D.G.G.)._.)./.`.,X@X1X2X:X$X",
".X/././.L.L.D.L.L.L.L.L.K.L.L.L.K.H.K.H.K.K.K.S.K.F.I.D.D.G.S.D.D.D.D.S.S.V.V.S.D.S.V.H.V.L.S.L.D.D.D.V.V.V.H.H.K.S.F.!.{./.).F.",
"B.D.B.D.V.S.D.K.L.L.L.L.H.H.H.V.H.H.J.K.V.S.H.S.K.S.D.D.S.S.S.D.D.D.V.S.B.V.V.V.V.V.V.V.V.V.V.H.D.D.N.B.B.B.V.V.N.N.N.V.b.m.V.m.",
"B.B.S.G.G.V.K.K.L.L.L.L.H.H.S.H.H.H.S.V.D.V.S.V.V.S.S.S.S.m.V.V.C.V.V.V.V.B.m.m.V.V.V.V.V.N.N.N.B.V.V.B.N.V.N.N.V.N.N.N.H.H.K.K.",
"B.B.V.N.H.N.b.N.N.H.N.N.N.N.B.V.B.N.B.b.B.B.B.b.m.b.b.b.m.m.b.b.N.B.m.B.B.B.j.v.v.M.v.k.j.j.j.j.j.j.j.j.j.M.j.M.v.b.N.M.m.V.H.H.",
"B.M.M.M.b.v.c.v.M.N.M.M.v.M.j.M.j.j.v.j.v.j.j.v.v.v.k.j.j.j.v.b.b.b.b.V.S.B.j.j.j.j.d.j.j.j.g.j.g.j.g.j.j.j.j.j.j.j.j.j.j.k.b.k.",
"M.M.M.M.b.v.v.v.j.k.j.j.j.j.j.j.k.j.j.j.j.j.j.j.j.k.j.j.j.j.j.v.j.v.j.c.d.j.j.g.j.j.j.j.j.j.j.j.j.g.g.g.g.g.g.d.g.d.j.g.g.f.f.f.",
"k.k.k.b.k.k.k.P.].J.k.k.j.j.j.j.k.k.k.f.f.f.f.f.f.f.j.j.f.j.j.k.j.k.j.j.j.j.f.f.j.g.j.j.j.g.f.g.g.f.f.f.f.f.p.p.f.p.p.p.f.p.p.p.",
"b.k.k.k.$.k.k.^.|.J.f.f.j.j.j.f.f.f.f.k.f.k.f.f.j.f.f.f.k.j.f.f.j.g.j.j.f.f.f.f.f.g.j.j.g.j.j.j.j.g.g.g.f.f.f.f.p.p.p.p.p.p.p.p.",
"b.k.k.k.k.j.h.b.k.k.k.f.f.k.k.j.f.k.f.f.k.k.f.$.f.f.f.j.f.f.$.j.j.v.J.b.j.j.f.j.j.j.j.j.g.j.j.g.g.f.f.f.f.f.p.p.p.p.p.p.p.p.p.p.",
"h.$.h.$.P.|.m.h.f.f.k.$.k.k.k.k.f.k.k.k.k.k.f.k.j.k.j.j.k.k.j.j.j.K.+X(.j.j.f.h.j.j.f.f.g.f.g.g.f.f.f.f.p.f.f.p.f.p.p.p.p.p.p.p.",
"h.h.c.h.(.|.C.h.k.k.k.$.k.k.k.k.k.k.k.k.k.k.k.k.j.k.k.k.k.j.j.j.k.J.|.P.j.j.f.j.j.k.j.j.j.g.g.g.g.f.f.f.f.p.p.p.d.j.C.p.p.p.p.p.",
"w.$.$.@.w.Z.w.$.$.$.$.h.w.$.$.$.h.h.h.k.k.k.h.$.k.f.f.k.k.k.j.j.j.h.b.k.k.j.j.k.k.k.j.j.j.j.j.b.j.j.f.f.f.p.p.p.d.[.[.p.p.p.@.p.",
"#.@.$.#.@.@.#.#.$.$.w.$.$.$.$.$.h.$.w.w.h.$.$.h.h.k.h.h.k.w.$.k.h.h.h.h.j.j.f.h.v.c.c.h.c.c.h.s.s.s.s.a.#.a.$.p.A.+X[.a.@.@.@.@.",
"O.O.O.O.O.O.#.#.#.w.$.$.#.@.$.$.$.w.$.w.w.$.w.w.$.$.w.w.c.k.w.k.w.w.h.$.w.w.w.$.s.s.s.a.a.$.s.a.a.s.a.$.a.@.$.@.#.#.a.+.@.a.@.a.",
"O.O.O.+.O.O.O.O.3.1.3.+.3.3.q.3.#.q.e.$.e.$.q.#.w.w.$.w.w.k.w.$.$.$.$.@.@.$.$.(.c.$.$.#.#.#.a.$.#.#.#.+.#.#.#.#.#.#.#.#.a.a.#.#.",
"O.O.+.O.o.<.o.<.1.o.1.e.e.q.e.#.w.w.w.w.w.n.w.w.w.c.w.w.w.w.w.c.c.w.w.$.$.s.!.;X(.c.w.c.x.x.x.x.x.w.x.w.x.#.w.#.#.#.+.#.#.#.#.#.",
"O.o.o.o...o.<.o.<.o.1.1.O.O.3.3.$.O.q.$.q.w.A.(.w.w.w.w.w.k.w.w.w.w.c.w.Z.Z.n.!.Z.x.w.w.w.x.w.w.w.#.+.w.#.#.#.w.#.@.+.#.#.#.+.+.",
"*.*.*.[ *.,.,.,.o.o.O.O.O.O.#.O.#.#.#.$.$.e.|.|.w.$.$.$.$.$.w.$.w.w.w.n.;X[.w.q.w.w.q.q.q.w.#.#.#.#.#.#.#.#.+.@.#.+.@.@.@.a.@.a.",
"o.o.o.o...<.<.<.o.:.<.:.:.:.o.3.3.#.q.#.$.#.w.Z.$.$.$.$.$.$.#.$.$.$.w.!.OX].$.$.$.x.$.$.$.$.w.$.#.#.#.#.#.$.@.#.@.@.@.@.#.#.+.+.",
"1.<.,.<.<.o.o.6.W.e.:.o.:.:.[ o.O.O.O.O.1.1.e.$.@.#.$.$.$.$.$.$.$.$.@.w.w.$.c.$.$.$.$.$.$.#.#.a.a.$.a.a.$.@.@.@.+.+.+.@.+.@.#.` ",
"o...<.o.,.,.*.Q.;XY.o.o.O.O.O.O.O.#.@.3.@.q.@.q.3.+.#.q.$.#.#.#.@.#.#.#.$.@.$.$.$.#.#.#.$.#.$.@.@.@.@.+.O.O.O.O.+.+.+.+.O.O.o.o.",
"<.o.o.o...o.,.Y.Y.4.[ :.:.:.o.:.1.O.3.3.3.q.#.#.q.#.w.#.q.q.3.q.#.q.e.#.1.q.q.q.+.#.+.+.+.1.1.1.<.1.1.o.o.:.o.o.[ ..:.....o.o.o.",
",.*.,.&.*.*.o.<.<.<.<.<.5.<.1.5.e.1.1.1.q.q.e.q.q.e.q.e.e.3.e.q.q.1.5.e.1.5.5.5.1.<.<.:.<.<.:.<.*.*.*.*.[ :.[ [ o.o.o.O.O.O.o.o.",
",.*.,.&.&.*.&.&.%.&.*.*.*.:.<.*.<.:.:.1.<.:.*.1.<.1.1.1.1.1.o.1.1.<.1.<.<.o.<.:.*.<.<.<.<.<.<.<.o.1.1.O.e.Y.1.o.[ &.o.o.o.[ [ *.",
"-.=.K J P -.P G P =.%.-.;.-.&.;.>.>.>.>.>.:.*.:.1.<.<.4.1.<.4.4.<.<.<.<.:.<.&.:.<.5.5.e.5.e.e.e.*.&.&.5.(.Y.o.%.*.*.*.*.&.&.&.%.",
"L P L L L P H P P P -.-.-.-.;.;.>.4.>.4.4.:.4.:.4.4.<.4.4.4.e.5.5.5.5.e.1.5.e.5.e.5.5.5.<.<.<.<.%.*.*.>.E.0.&.-.-.%.P J J =.9.U.",
"H L L L L D L L P P =.8.-.=.=.-.;.;.>.;.;.>.>.;.>.>.>.:.*.;.*.*.*.*.*.;.*.;.;.;.;.;.*.;.;.;.;.;.;.&.;.>.-.-.=.P P K P L P 9.].}.",
"L F S L S D D L L P G G =.=.-.8.8.-.;.8.=.=.%.-.=.%.;.=.%.%.%.%.;.%.;.-.-.*.*.>.>.>.;.>.>.>.;.;.;.>.;.-.=.=.7.P P P P L P U.%XW.",
"D D D D D D D L D L G =.G 8.=.;.-.%.;.;.;.=.;.;.>.;.;.>.:.;.;.%.` *.;.;.;.;.;.;.;.-.;.;.-.;.-.&.&.-.=.8.=.P P G P P P K L P U.=.",
"S D D D D D D H G D G %.%.L P =.%.t ' %.F %.%.=.=.%.%.*.%.%.%.%.' &.%.%.-.-.%.=.7.=.=.=.=.=.=.V %.G P P P P P P L L -.P L P V J ",
"F B B H D D D u h F S C ] H P G ' Q M P u M *.-.=.%.*.-.-.F u m u / V 7.8.V &...-.8.J -.%.=.=.N &.=.=.7.P V L P L K &.P G H g L ",
"y g f N S H B L U ;.J 3 x , r F f U h P t ' X.&.G %.M =.%.V ' & %.U [ W.T.[ W X.-.-.s -.' &.-.h Q P K P P { -.P L K L S w u 2 H ",
"s g f 3 g K j E./ z.| 1 1   e r x Q ! L 2 ` E ' G ` s %.u ` ..- ' Q w.R.T.$ 4 8 ..&.2 &.` k N 2 8 V j &.g M ` F C s L u B m 3 4 ",
"j 8 n 5 X C Z K 3 2.| x : & s h Q / 7 S O 2 Y U %.T t C V W ^ % W T f / 6.2 : z } { > d W s * U ! U ` B + x 1 C ^ 4 m B H f ~ 2 ",
"W h { 3 $ i A a z C n I U q 8 j Y Y 0 h + = ! x ` q g d  .g 1 * 4 9 U | f 3 < v (  .> v T *   i.! / k N = 0 0 ! ~ q q  .$ * ~ 1 ",
"k 2 d o p a A = x A t.y.R T q } Y t.0 T = < z A / h d v l.o + ! b T 2 t.4 n y.} | } 0 a ) U $ ( 8 _ ^ U < z v ) ^ < z  .X 1 t.8 ",
"f s j i o ; 6 ; q z 0 I R Q b ( 6 x } r.0 n n A k A ; j Z g = | k Q ; | 7 j b I 0 n 0 ; x 8 d b < q ) T b n A ( } ; v j i $ j f ",
"O @ s b . o ; ; q < 5 u.! 9 ) } l 3 u.i.a z c y.b ( = l < r . ( f z * 8 r.v A A 5 6 = < q & U Z v = } ( v c n c n ; 6 ; # # s 3 "
};
